<?xml version="1.0" encoding="UTF-8" standalone="no"?>
<!DOCTYPE svg PUBLIC "-//W3C//DTD SVG 1.1//EN"
 "http://www.w3.org/Graphics/SVG/1.1/DTD/svg11.dtd">
<!-- Generated by graphviz version 2.38.0 (20140413.2041)
 -->
<!-- Title: snakemake_dag Pages: 1 -->
<svg width="2926pt" height="265pt"
 viewBox="0.00 0.00 2925.50 265.00" xmlns="http://www.w3.org/2000/svg" xmlns:xlink="http://www.w3.org/1999/xlink">
<g id="graph0" class="graph" transform="scale(1 1) rotate(0) translate(4 261)">
<title>snakemake_dag</title>
<polygon fill="white" stroke="none" points="-4,4 -4,-261 2921.5,-261 2921.5,4 -4,4"/>
<!-- 0 -->
<g id="node1" class="node"><title>0</title>
<path fill="none" stroke="#56d892" stroke-width="2" stroke-dasharray="5,2" d="M1454.5,-180C1454.5,-180 1298.5,-180 1298.5,-180 1292.5,-180 1286.5,-174 1286.5,-168 1286.5,-168 1286.5,-156 1286.5,-156 1286.5,-150 1292.5,-144 1298.5,-144 1298.5,-144 1454.5,-144 1454.5,-144 1460.5,-144 1466.5,-150 1466.5,-156 1466.5,-156 1466.5,-168 1466.5,-168 1466.5,-174 1460.5,-180 1454.5,-180"/>
<text text-anchor="middle" x="1376.5" y="-159.5" font-family="sans" font-size="10.00">getLengthDistributionOfSegments</text>
</g>
<!-- 24 -->
<g id="node25" class="node"><title>24</title>
<path fill="none" stroke="#567bd8" stroke-width="2" stroke-dasharray="5,2" d="M1504,-108C1504,-108 1417,-108 1417,-108 1411,-108 1405,-102 1405,-96 1405,-96 1405,-84 1405,-84 1405,-78 1411,-72 1417,-72 1417,-72 1504,-72 1504,-72 1510,-72 1516,-78 1516,-84 1516,-84 1516,-96 1516,-96 1516,-102 1510,-108 1504,-108"/>
<text text-anchor="middle" x="1460.5" y="-87.5" font-family="sans" font-size="10.00">plot_summaryStats</text>
</g>
<!-- 0&#45;&gt;24 -->
<g id="edge84" class="edge"><title>0&#45;&gt;24</title>
<path fill="none" stroke="grey" stroke-width="2" d="M1397.26,-143.697C1407.74,-134.965 1420.61,-124.24 1432,-114.75"/>
<polygon fill="grey" stroke="grey" stroke-width="2" points="1434.53,-117.195 1439.97,-108.104 1430.05,-111.817 1434.53,-117.195"/>
</g>
<!-- 1 -->
<g id="node2" class="node"><title>1</title>
<path fill="none" stroke="#8fd856" stroke-width="2" stroke-dasharray="5,2" d="M2173.5,-257C2173.5,-257 2073.5,-257 2073.5,-257 2067.5,-257 2061.5,-251 2061.5,-245 2061.5,-245 2061.5,-228 2061.5,-228 2061.5,-222 2067.5,-216 2073.5,-216 2073.5,-216 2173.5,-216 2173.5,-216 2179.5,-216 2185.5,-222 2185.5,-228 2185.5,-228 2185.5,-245 2185.5,-245 2185.5,-251 2179.5,-257 2173.5,-257"/>
<text text-anchor="middle" x="2123.5" y="-245" font-family="sans" font-size="10.00">download_annotations</text>
<text text-anchor="middle" x="2123.5" y="-234" font-family="sans" font-size="10.00">cell: H1</text>
<text text-anchor="middle" x="2123.5" y="-223" font-family="sans" font-size="10.00">region: broadDomains</text>
</g>
<!-- 1&#45;&gt;0 -->
<g id="edge5" class="edge"><title>1&#45;&gt;0</title>
<path fill="none" stroke="grey" stroke-width="2" d="M2061.32,-217.645C2058.35,-217.037 2055.4,-216.483 2052.5,-216 1802.27,-174.289 1732.48,-208.883 1476.52,-180.031"/>
<polygon fill="grey" stroke="grey" stroke-width="2" points="1476.88,-176.55 1466.55,-178.886 1476.08,-183.505 1476.88,-176.55"/>
</g>
<!-- 3 -->
<g id="node4" class="node"><title>3</title>
<path fill="none" stroke="#56d8b9" stroke-width="2" stroke-dasharray="5,2" d="M1592,-180C1592,-180 1497,-180 1497,-180 1491,-180 1485,-174 1485,-168 1485,-168 1485,-156 1485,-156 1485,-150 1491,-144 1497,-144 1497,-144 1592,-144 1592,-144 1598,-144 1604,-150 1604,-156 1604,-156 1604,-168 1604,-168 1604,-174 1598,-180 1592,-180"/>
<text text-anchor="middle" x="1544.5" y="-159.5" font-family="sans" font-size="10.00">getGenomeCoverage</text>
</g>
<!-- 1&#45;&gt;3 -->
<g id="edge25" class="edge"><title>1&#45;&gt;3</title>
<path fill="none" stroke="grey" stroke-width="2" d="M2061.31,-217.715C2058.34,-217.088 2055.4,-216.511 2052.5,-216 1862.49,-182.436 1807.9,-210.921 1614.03,-180.095"/>
<polygon fill="grey" stroke="grey" stroke-width="2" points="1614.52,-176.629 1604.09,-178.482 1613.4,-183.538 1614.52,-176.629"/>
</g>
<!-- 9 -->
<g id="node10" class="node"><title>9</title>
<path fill="none" stroke="#d87d56" stroke-width="2" stroke-dasharray="5,2" d="M1741,-180C1741,-180 1634,-180 1634,-180 1628,-180 1622,-174 1622,-168 1622,-168 1622,-156 1622,-156 1622,-150 1628,-144 1634,-144 1634,-144 1741,-144 1741,-144 1747,-144 1753,-150 1753,-156 1753,-156 1753,-168 1753,-168 1753,-174 1747,-180 1741,-180"/>
<text text-anchor="middle" x="1687.5" y="-159.5" font-family="sans" font-size="10.00">getNumberOfSegments</text>
</g>
<!-- 1&#45;&gt;9 -->
<g id="edge45" class="edge"><title>1&#45;&gt;9</title>
<path fill="none" stroke="grey" stroke-width="2" d="M2061.27,-217.939C2058.31,-217.253 2055.38,-216.602 2052.5,-216 1953.43,-195.285 1837.55,-179.946 1763.39,-171.24"/>
<polygon fill="grey" stroke="grey" stroke-width="2" points="1763.54,-167.735 1753.2,-170.056 1762.73,-174.688 1763.54,-167.735"/>
</g>
<!-- 18 -->
<g id="node19" class="node"><title>18</title>
<path fill="none" stroke="#b6d856" stroke-width="2" stroke-dasharray="5,2" d="M1256.5,-180C1256.5,-180 1168.5,-180 1168.5,-180 1162.5,-180 1156.5,-174 1156.5,-168 1156.5,-168 1156.5,-156 1156.5,-156 1156.5,-150 1162.5,-144 1168.5,-144 1168.5,-144 1256.5,-144 1256.5,-144 1262.5,-144 1268.5,-150 1268.5,-156 1268.5,-156 1268.5,-168 1268.5,-168 1268.5,-174 1262.5,-180 1256.5,-180"/>
<text text-anchor="middle" x="1212.5" y="-159.5" font-family="sans" font-size="10.00">getOverlapFractions</text>
</g>
<!-- 1&#45;&gt;18 -->
<g id="edge66" class="edge"><title>1&#45;&gt;18</title>
<path fill="none" stroke="grey" stroke-width="2" d="M2061.33,-217.588C2058.36,-216.995 2055.4,-216.46 2052.5,-216 1715.18,-162.522 1620.19,-230.588 1278.64,-179.966"/>
<polygon fill="grey" stroke="grey" stroke-width="2" points="1279.13,-176.501 1268.72,-178.473 1278.09,-183.423 1279.13,-176.501"/>
</g>
<!-- 2 -->
<g id="node3" class="node"><title>2</title>
<path fill="none" stroke="#8fd856" stroke-width="2" stroke-dasharray="5,2" d="M2315.5,-257C2315.5,-257 2215.5,-257 2215.5,-257 2209.5,-257 2203.5,-251 2203.5,-245 2203.5,-245 2203.5,-228 2203.5,-228 2203.5,-222 2209.5,-216 2215.5,-216 2215.5,-216 2315.5,-216 2315.5,-216 2321.5,-216 2327.5,-222 2327.5,-228 2327.5,-228 2327.5,-245 2327.5,-245 2327.5,-251 2321.5,-257 2315.5,-257"/>
<text text-anchor="middle" x="2265.5" y="-245" font-family="sans" font-size="10.00">download_annotations</text>
<text text-anchor="middle" x="2265.5" y="-234" font-family="sans" font-size="10.00">cell: GM12878</text>
<text text-anchor="middle" x="2265.5" y="-223" font-family="sans" font-size="10.00">region: hotRegions</text>
</g>
<!-- 2&#45;&gt;0 -->
<g id="edge1" class="edge"><title>2&#45;&gt;0</title>
<path fill="none" stroke="grey" stroke-width="2" d="M2203.33,-217.601C2200.36,-217.005 2197.4,-216.466 2194.5,-216 1881.82,-165.85 1795.29,-214.127 1476.53,-180.021"/>
<polygon fill="grey" stroke="grey" stroke-width="2" points="1476.86,-176.537 1466.54,-178.934 1476.11,-183.496 1476.86,-176.537"/>
</g>
<!-- 2&#45;&gt;3 -->
<g id="edge21" class="edge"><title>2&#45;&gt;3</title>
<path fill="none" stroke="grey" stroke-width="2" d="M2203.32,-217.643C2200.35,-217.036 2197.4,-216.483 2194.5,-216 1942.1,-173.996 1870.43,-218.437 1614.06,-180.072"/>
<polygon fill="grey" stroke="grey" stroke-width="2" points="1614.49,-176.597 1604.08,-178.55 1613.44,-183.517 1614.49,-176.597"/>
</g>
<!-- 2&#45;&gt;9 -->
<g id="edge41" class="edge"><title>2&#45;&gt;9</title>
<path fill="none" stroke="grey" stroke-width="2" d="M2203.3,-217.796C2200.33,-217.148 2197.39,-216.544 2194.5,-216 2043.09,-187.493 1863.15,-173.248 1763.5,-167.05"/>
<polygon fill="grey" stroke="grey" stroke-width="2" points="1763.42,-163.539 1753.22,-166.422 1762.99,-170.526 1763.42,-163.539"/>
</g>
<!-- 2&#45;&gt;18 -->
<g id="edge62" class="edge"><title>2&#45;&gt;18</title>
<path fill="none" stroke="grey" stroke-width="2" d="M2203.34,-217.562C2200.36,-216.976 2197.41,-216.45 2194.5,-216 1794.68,-154.085 1682.74,-238.57 1278.62,-179.955"/>
<polygon fill="grey" stroke="grey" stroke-width="2" points="1279.12,-176.491 1268.72,-178.498 1278.1,-183.416 1279.12,-176.491"/>
</g>
<!-- 3&#45;&gt;24 -->
<g id="edge86" class="edge"><title>3&#45;&gt;24</title>
<path fill="none" stroke="grey" stroke-width="2" d="M1523.74,-143.697C1513.26,-134.965 1500.39,-124.24 1489,-114.75"/>
<polygon fill="grey" stroke="grey" stroke-width="2" points="1490.95,-111.817 1481.03,-108.104 1486.47,-117.195 1490.95,-111.817"/>
</g>
<!-- 4 -->
<g id="node5" class="node"><title>4</title>
<path fill="none" stroke="#8fd856" stroke-width="2" stroke-dasharray="5,2" d="M2463.5,-257C2463.5,-257 2357.5,-257 2357.5,-257 2351.5,-257 2345.5,-251 2345.5,-245 2345.5,-245 2345.5,-228 2345.5,-228 2345.5,-222 2351.5,-216 2357.5,-216 2357.5,-216 2463.5,-216 2463.5,-216 2469.5,-216 2475.5,-222 2475.5,-228 2475.5,-228 2475.5,-245 2475.5,-245 2475.5,-251 2469.5,-257 2463.5,-257"/>
<text text-anchor="middle" x="2410.5" y="-245" font-family="sans" font-size="10.00">download_annotations</text>
<text text-anchor="middle" x="2410.5" y="-234" font-family="sans" font-size="10.00">cell: K562</text>
<text text-anchor="middle" x="2410.5" y="-223" font-family="sans" font-size="10.00">region: superEnhancers</text>
</g>
<!-- 4&#45;&gt;0 -->
<g id="edge6" class="edge"><title>4&#45;&gt;0</title>
<path fill="none" stroke="grey" stroke-width="2" d="M2345.29,-217.5C2342.33,-216.941 2339.39,-216.436 2336.5,-216 1961.11,-159.372 1858.16,-219.419 1476.75,-180.037"/>
<polygon fill="grey" stroke="grey" stroke-width="2" points="1476.85,-176.528 1466.54,-178.965 1476.12,-183.49 1476.85,-176.528"/>
</g>
<!-- 4&#45;&gt;3 -->
<g id="edge26" class="edge"><title>4&#45;&gt;3</title>
<path fill="none" stroke="grey" stroke-width="2" d="M2345.29,-217.529C2342.33,-216.962 2339.39,-216.447 2336.5,-216 2021.39,-167.192 1932.99,-226.063 1614.06,-180.056"/>
<polygon fill="grey" stroke="grey" stroke-width="2" points="1614.47,-176.579 1604.07,-178.592 1613.46,-183.505 1614.47,-176.579"/>
</g>
<!-- 4&#45;&gt;9 -->
<g id="edge46" class="edge"><title>4&#45;&gt;9</title>
<path fill="none" stroke="grey" stroke-width="2" d="M2345.27,-217.644C2342.31,-217.046 2339.38,-216.493 2336.5,-216 2131.33,-180.871 1885.54,-168.857 1763.72,-164.88"/>
<polygon fill="grey" stroke="grey" stroke-width="2" points="1763.49,-161.371 1753.38,-164.552 1763.27,-168.368 1763.49,-161.371"/>
</g>
<!-- 4&#45;&gt;18 -->
<g id="edge67" class="edge"><title>4&#45;&gt;18</title>
<path fill="none" stroke="grey" stroke-width="2" d="M2345.29,-217.472C2342.33,-216.92 2339.39,-216.425 2336.5,-216 1873.86,-148.056 1745.32,-246.584 1278.75,-179.967"/>
<polygon fill="grey" stroke="grey" stroke-width="2" points="1279.11,-176.484 1268.71,-178.517 1278.11,-183.412 1279.11,-176.484"/>
</g>
<!-- 5 -->
<g id="node6" class="node"><title>5</title>
<path fill="none" stroke="#8fd856" stroke-width="2" stroke-dasharray="5,2" d="M2615.5,-257C2615.5,-257 2505.5,-257 2505.5,-257 2499.5,-257 2493.5,-251 2493.5,-245 2493.5,-245 2493.5,-228 2493.5,-228 2493.5,-222 2499.5,-216 2505.5,-216 2505.5,-216 2615.5,-216 2615.5,-216 2621.5,-216 2627.5,-222 2627.5,-228 2627.5,-228 2627.5,-245 2627.5,-245 2627.5,-251 2621.5,-257 2615.5,-257"/>
<text text-anchor="middle" x="2560.5" y="-245" font-family="sans" font-size="10.00">download_annotations</text>
<text text-anchor="middle" x="2560.5" y="-234" font-family="sans" font-size="10.00">cell: GM12878</text>
<text text-anchor="middle" x="2560.5" y="-223" font-family="sans" font-size="10.00">region: typicalEnhancers</text>
</g>
<!-- 5&#45;&gt;0 -->
<g id="edge7" class="edge"><title>5&#45;&gt;0</title>
<path fill="none" stroke="grey" stroke-width="2" d="M2493.11,-217.406C2490.21,-216.882 2487.33,-216.409 2484.5,-216 2043.63,-152.337 1923.61,-224.996 1476.49,-180.004"/>
<polygon fill="grey" stroke="grey" stroke-width="2" points="1476.84,-176.522 1466.54,-178.989 1476.13,-183.486 1476.84,-176.522"/>
</g>
<!-- 5&#45;&gt;3 -->
<g id="edge27" class="edge"><title>5&#45;&gt;3</title>
<path fill="none" stroke="grey" stroke-width="2" d="M2493.1,-217.426C2490.21,-216.896 2487.33,-216.417 2484.5,-216 2104.03,-159.972 1998.22,-234.038 1614.06,-180.046"/>
<polygon fill="grey" stroke="grey" stroke-width="2" points="1614.46,-176.567 1604.07,-178.621 1613.47,-183.497 1614.46,-176.567"/>
</g>
<!-- 5&#45;&gt;9 -->
<g id="edge47" class="edge"><title>5&#45;&gt;9</title>
<path fill="none" stroke="grey" stroke-width="2" d="M2493.09,-217.516C2490.2,-216.962 2487.32,-216.452 2484.5,-216 2222,-173.967 1905.72,-165.165 1763.4,-163.396"/>
<polygon fill="grey" stroke="grey" stroke-width="2" points="1763.08,-159.892 1753.04,-163.276 1763,-166.892 1763.08,-159.892"/>
</g>
<!-- 5&#45;&gt;18 -->
<g id="edge68" class="edge"><title>5&#45;&gt;18</title>
<path fill="none" stroke="grey" stroke-width="2" d="M2493.11,-217.385C2490.21,-216.867 2487.33,-216.401 2484.5,-216 1956.48,-141.327 1810.57,-254.926 1278.95,-179.991"/>
<polygon fill="grey" stroke="grey" stroke-width="2" points="1279.1,-176.478 1268.71,-178.531 1278.12,-183.408 1279.1,-176.478"/>
</g>
<!-- 6 -->
<g id="node7" class="node"><title>6</title>
<path fill="none" stroke="#8fd856" stroke-width="2" stroke-dasharray="5,2" d="M2763.5,-257C2763.5,-257 2657.5,-257 2657.5,-257 2651.5,-257 2645.5,-251 2645.5,-245 2645.5,-245 2645.5,-228 2645.5,-228 2645.5,-222 2651.5,-216 2657.5,-216 2657.5,-216 2763.5,-216 2763.5,-216 2769.5,-216 2775.5,-222 2775.5,-228 2775.5,-228 2775.5,-245 2775.5,-245 2775.5,-251 2769.5,-257 2763.5,-257"/>
<text text-anchor="middle" x="2710.5" y="-245" font-family="sans" font-size="10.00">download_annotations</text>
<text text-anchor="middle" x="2710.5" y="-234" font-family="sans" font-size="10.00">cell: GM12878</text>
<text text-anchor="middle" x="2710.5" y="-223" font-family="sans" font-size="10.00">region: superEnhancers</text>
</g>
<!-- 6&#45;&gt;0 -->
<g id="edge8" class="edge"><title>6&#45;&gt;0</title>
<path fill="none" stroke="grey" stroke-width="2" d="M2645.3,-217.461C2642.33,-216.913 2639.39,-216.42 2636.5,-216 2128.99,-142.239 1990.96,-230.63 1476.82,-180.033"/>
<polygon fill="grey" stroke="grey" stroke-width="2" points="1476.83,-176.517 1466.54,-179.007 1476.14,-183.482 1476.83,-176.517"/>
</g>
<!-- 6&#45;&gt;3 -->
<g id="edge28" class="edge"><title>6&#45;&gt;3</title>
<path fill="none" stroke="grey" stroke-width="2" d="M2645.29,-217.476C2642.33,-216.923 2639.39,-216.426 2636.5,-216 2189.28,-150.055 2065.25,-242.206 1614.1,-180.043"/>
<polygon fill="grey" stroke="grey" stroke-width="2" points="1614.45,-176.558 1604.06,-178.642 1613.48,-183.491 1614.45,-176.558"/>
</g>
<!-- 6&#45;&gt;9 -->
<g id="edge48" class="edge"><title>6&#45;&gt;9</title>
<path fill="none" stroke="grey" stroke-width="2" d="M2645.28,-217.551C2642.32,-216.978 2639.39,-216.456 2636.5,-216 2468.77,-189.495 1957.33,-171.351 1763.27,-165.256"/>
<polygon fill="grey" stroke="grey" stroke-width="2" points="1763.26,-161.754 1753.16,-164.94 1763.04,-168.751 1763.26,-161.754"/>
</g>
<!-- 6&#45;&gt;18 -->
<g id="edge69" class="edge"><title>6&#45;&gt;18</title>
<path fill="none" stroke="grey" stroke-width="2" d="M2645.3,-217.445C2642.34,-216.901 2639.39,-216.414 2636.5,-216 2041.73,-130.928 1877.54,-263.495 1278.89,-179.979"/>
<polygon fill="grey" stroke="grey" stroke-width="2" points="1279.1,-176.474 1268.71,-178.543 1278.12,-183.405 1279.1,-176.474"/>
</g>
<!-- 7 -->
<g id="node8" class="node"><title>7</title>
<path fill="none" stroke="#8fd856" stroke-width="2" stroke-dasharray="5,2" d="M2905.5,-257C2905.5,-257 2805.5,-257 2805.5,-257 2799.5,-257 2793.5,-251 2793.5,-245 2793.5,-245 2793.5,-228 2793.5,-228 2793.5,-222 2799.5,-216 2805.5,-216 2805.5,-216 2905.5,-216 2905.5,-216 2911.5,-216 2917.5,-222 2917.5,-228 2917.5,-228 2917.5,-245 2917.5,-245 2917.5,-251 2911.5,-257 2905.5,-257"/>
<text text-anchor="middle" x="2855.5" y="-245" font-family="sans" font-size="10.00">download_annotations</text>
<text text-anchor="middle" x="2855.5" y="-234" font-family="sans" font-size="10.00">cell: GM12878</text>
<text text-anchor="middle" x="2855.5" y="-223" font-family="sans" font-size="10.00">region: broadDomains</text>
</g>
<!-- 7&#45;&gt;0 -->
<g id="edge9" class="edge"><title>7&#45;&gt;0</title>
<path fill="none" stroke="grey" stroke-width="2" d="M2793.34,-217.52C2790.37,-216.945 2787.41,-216.433 2784.5,-216 2212.22,-130.815 2056.48,-236.146 1476.83,-180.03"/>
<polygon fill="grey" stroke="grey" stroke-width="2" points="1476.83,-176.513 1466.53,-179.021 1476.14,-183.48 1476.83,-176.513"/>
</g>
<!-- 7&#45;&gt;3 -->
<g id="edge29" class="edge"><title>7&#45;&gt;3</title>
<path fill="none" stroke="grey" stroke-width="2" d="M2793.34,-217.531C2790.37,-216.954 2787.41,-216.438 2784.5,-216 2272.44,-138.938 2130.49,-250.178 1614.01,-180.024"/>
<polygon fill="grey" stroke="grey" stroke-width="2" points="1614.45,-176.552 1604.06,-178.657 1613.49,-183.486 1614.45,-176.552"/>
</g>
<!-- 7&#45;&gt;9 -->
<g id="edge49" class="edge"><title>7&#45;&gt;9</title>
<path fill="none" stroke="grey" stroke-width="2" d="M2793.33,-217.595C2790.36,-217 2787.4,-216.463 2784.5,-216 2587.31,-184.551 1978.49,-169.086 1763.58,-164.501"/>
<polygon fill="grey" stroke="grey" stroke-width="2" points="1763.41,-160.996 1753.34,-164.284 1763.26,-167.995 1763.41,-160.996"/>
</g>
<!-- 7&#45;&gt;18 -->
<g id="edge70" class="edge"><title>7&#45;&gt;18</title>
<path fill="none" stroke="grey" stroke-width="2" d="M2793.35,-217.507C2790.37,-216.936 2787.41,-216.428 2784.5,-216 2125.05,-119.057 1942.79,-271.807 1279.01,-179.991"/>
<polygon fill="grey" stroke="grey" stroke-width="2" points="1279.1,-176.47 1268.71,-178.552 1278.13,-183.402 1279.1,-176.47"/>
</g>
<!-- 8 -->
<g id="node9" class="node"><title>8</title>
<path fill="none" stroke="#8fd856" stroke-width="2" stroke-dasharray="5,2" d="M119,-257C119,-257 12,-257 12,-257 6,-257 0,-251 0,-245 0,-245 0,-228 0,-228 0,-222 6,-216 12,-216 12,-216 119,-216 119,-216 125,-216 131,-222 131,-228 131,-228 131,-245 131,-245 131,-251 125,-257 119,-257"/>
<text text-anchor="middle" x="65.5" y="-245" font-family="sans" font-size="10.00">download_annotations</text>
<text text-anchor="middle" x="65.5" y="-234" font-family="sans" font-size="10.00">cell: HepG2</text>
<text text-anchor="middle" x="65.5" y="-223" font-family="sans" font-size="10.00">region: stretchEnhancer</text>
</g>
<!-- 8&#45;&gt;0 -->
<g id="edge10" class="edge"><title>8&#45;&gt;0</title>
<path fill="none" stroke="grey" stroke-width="2" d="M131.181,-217.54C134.319,-216.96 137.437,-216.441 140.5,-216 637.627,-144.417 772.706,-229.765 1276.39,-180.013"/>
<polygon fill="grey" stroke="grey" stroke-width="2" points="1276.86,-183.483 1286.46,-179.005 1276.17,-176.518 1276.86,-183.483"/>
</g>
<!-- 8&#45;&gt;3 -->
<g id="edge30" class="edge"><title>8&#45;&gt;3</title>
<path fill="none" stroke="grey" stroke-width="2" d="M131.179,-217.522C134.318,-216.947 137.436,-216.434 140.5,-216 724.887,-133.251 885.492,-258.036 1474.79,-179.88"/>
<polygon fill="grey" stroke="grey" stroke-width="2" points="1475.37,-183.334 1484.81,-178.537 1474.44,-176.396 1475.37,-183.334"/>
</g>
<!-- 8&#45;&gt;9 -->
<g id="edge50" class="edge"><title>8&#45;&gt;9</title>
<path fill="none" stroke="grey" stroke-width="2" d="M131.177,-217.513C134.317,-216.94 137.436,-216.43 140.5,-216 785.246,-125.529 961.279,-259.344 1611.69,-179.917"/>
<polygon fill="grey" stroke="grey" stroke-width="2" points="1612.28,-183.37 1621.78,-178.672 1611.43,-176.422 1612.28,-183.37"/>
</g>
<!-- 8&#45;&gt;18 -->
<g id="edge71" class="edge"><title>8&#45;&gt;18</title>
<path fill="none" stroke="grey" stroke-width="2" d="M131.191,-217.607C134.327,-217.01 137.441,-216.468 140.5,-216 335.916,-186.089 943.847,-169.351 1146.22,-164.498"/>
<polygon fill="grey" stroke="grey" stroke-width="2" points="1146.49,-167.992 1156.4,-164.255 1146.32,-160.994 1146.49,-167.992"/>
</g>
<!-- 9&#45;&gt;24 -->
<g id="edge85" class="edge"><title>9&#45;&gt;24</title>
<path fill="none" stroke="grey" stroke-width="2" d="M1632.26,-143.966C1600.13,-134.057 1559.45,-121.514 1525.75,-111.121"/>
<polygon fill="grey" stroke="grey" stroke-width="2" points="1526.58,-107.713 1515.99,-108.111 1524.51,-114.402 1526.58,-107.713"/>
</g>
<!-- 10 -->
<g id="node11" class="node"><title>10</title>
<path fill="none" stroke="#8fd856" stroke-width="2" stroke-dasharray="5,2" d="M267.5,-257C267.5,-257 161.5,-257 161.5,-257 155.5,-257 149.5,-251 149.5,-245 149.5,-245 149.5,-228 149.5,-228 149.5,-222 155.5,-216 161.5,-216 161.5,-216 267.5,-216 267.5,-216 273.5,-216 279.5,-222 279.5,-228 279.5,-228 279.5,-245 279.5,-245 279.5,-251 273.5,-257 267.5,-257"/>
<text text-anchor="middle" x="214.5" y="-245" font-family="sans" font-size="10.00">download_annotations</text>
<text text-anchor="middle" x="214.5" y="-234" font-family="sans" font-size="10.00">cell: HepG2</text>
<text text-anchor="middle" x="214.5" y="-223" font-family="sans" font-size="10.00">region: superEnhancers</text>
</g>
<!-- 10&#45;&gt;0 -->
<g id="edge13" class="edge"><title>10&#45;&gt;0</title>
<path fill="none" stroke="grey" stroke-width="2" d="M279.707,-217.481C282.668,-216.927 285.609,-216.428 288.5,-216 720.309,-152.054 838.214,-224.213 1276.38,-180.018"/>
<polygon fill="grey" stroke="grey" stroke-width="2" points="1276.87,-183.486 1286.46,-178.986 1276.16,-176.523 1276.87,-183.486"/>
</g>
<!-- 10&#45;&gt;3 -->
<g id="edge33" class="edge"><title>10&#45;&gt;3</title>
<path fill="none" stroke="grey" stroke-width="2" d="M279.704,-217.459C282.665,-216.911 285.607,-216.419 288.5,-216 807.521,-140.747 950.757,-250.124 1474.72,-179.892"/>
<polygon fill="grey" stroke="grey" stroke-width="2" points="1475.37,-183.336 1484.81,-178.524 1474.43,-176.4 1475.37,-183.336"/>
</g>
<!-- 10&#45;&gt;9 -->
<g id="edge53" class="edge"><title>10&#45;&gt;9</title>
<path fill="none" stroke="grey" stroke-width="2" d="M279.702,-217.447C282.664,-216.902 285.607,-216.415 288.5,-216 867.93,-132.915 1026.65,-252.064 1611.82,-179.902"/>
<polygon fill="grey" stroke="grey" stroke-width="2" points="1612.29,-183.371 1621.78,-178.661 1611.42,-176.425 1612.29,-183.371"/>
</g>
<!-- 10&#45;&gt;18 -->
<g id="edge74" class="edge"><title>10&#45;&gt;18</title>
<path fill="none" stroke="grey" stroke-width="2" d="M279.719,-217.556C282.676,-216.982 285.613,-216.458 288.5,-216 606.9,-165.441 993.788,-161.577 1146.23,-162.27"/>
<polygon fill="grey" stroke="grey" stroke-width="2" points="1146.34,-165.771 1156.36,-162.325 1146.38,-158.771 1146.34,-165.771"/>
</g>
<!-- 11 -->
<g id="node12" class="node"><title>11</title>
<path fill="none" stroke="#68d856" stroke-width="2" stroke-dasharray="5,2" d="M1359.5,-108C1359.5,-108 1265.5,-108 1265.5,-108 1259.5,-108 1253.5,-102 1253.5,-96 1253.5,-96 1253.5,-84 1253.5,-84 1253.5,-78 1259.5,-72 1265.5,-72 1265.5,-72 1359.5,-72 1359.5,-72 1365.5,-72 1371.5,-78 1371.5,-84 1371.5,-84 1371.5,-96 1371.5,-96 1371.5,-102 1365.5,-108 1359.5,-108"/>
<text text-anchor="middle" x="1312.5" y="-87.5" font-family="sans" font-size="10.00">plot_overlapFractions</text>
</g>
<!-- 22 -->
<g id="node23" class="node"><title>22</title>
<path fill="none" stroke="#56d0d8" stroke-width="2" stroke-dasharray="5,2" d="M1401.5,-36C1401.5,-36 1371.5,-36 1371.5,-36 1365.5,-36 1359.5,-30 1359.5,-24 1359.5,-24 1359.5,-12 1359.5,-12 1359.5,-6 1365.5,-0 1371.5,-0 1371.5,-0 1401.5,-0 1401.5,-0 1407.5,-0 1413.5,-6 1413.5,-12 1413.5,-12 1413.5,-24 1413.5,-24 1413.5,-30 1407.5,-36 1401.5,-36"/>
<text text-anchor="middle" x="1386.5" y="-15.5" font-family="sans" font-size="10.00">final</text>
</g>
<!-- 11&#45;&gt;22 -->
<g id="edge83" class="edge"><title>11&#45;&gt;22</title>
<path fill="none" stroke="grey" stroke-width="2" d="M1330.79,-71.6966C1339.93,-63.0503 1351.14,-52.4486 1361.1,-43.027"/>
<polygon fill="grey" stroke="grey" stroke-width="2" points="1363.56,-45.519 1368.42,-36.1043 1358.75,-40.4337 1363.56,-45.519"/>
</g>
<!-- 12 -->
<g id="node13" class="node"><title>12</title>
<path fill="none" stroke="#8fd856" stroke-width="2" stroke-dasharray="5,2" d="M409.5,-257C409.5,-257 309.5,-257 309.5,-257 303.5,-257 297.5,-251 297.5,-245 297.5,-245 297.5,-228 297.5,-228 297.5,-222 303.5,-216 309.5,-216 309.5,-216 409.5,-216 409.5,-216 415.5,-216 421.5,-222 421.5,-228 421.5,-228 421.5,-245 421.5,-245 421.5,-251 415.5,-257 409.5,-257"/>
<text text-anchor="middle" x="359.5" y="-245" font-family="sans" font-size="10.00">download_annotations</text>
<text text-anchor="middle" x="359.5" y="-234" font-family="sans" font-size="10.00">cell: H1</text>
<text text-anchor="middle" x="359.5" y="-223" font-family="sans" font-size="10.00">region: hotRegions</text>
</g>
<!-- 12&#45;&gt;0 -->
<g id="edge18" class="edge"><title>12&#45;&gt;0</title>
<path fill="none" stroke="grey" stroke-width="2" d="M421.665,-217.574C424.639,-216.985 427.595,-216.455 430.5,-216 799.48,-158.248 901.061,-218.88 1276.41,-180.02"/>
<polygon fill="grey" stroke="grey" stroke-width="2" points="1276.88,-183.49 1286.46,-178.963 1276.15,-176.528 1276.88,-183.49"/>
</g>
<!-- 12&#45;&gt;3 -->
<g id="edge38" class="edge"><title>12&#45;&gt;3</title>
<path fill="none" stroke="grey" stroke-width="2" d="M421.661,-217.545C424.636,-216.964 427.594,-216.443 430.5,-216 886.663,-146.48 1013.41,-242.55 1474.88,-179.874"/>
<polygon fill="grey" stroke="grey" stroke-width="2" points="1475.38,-183.339 1484.81,-178.509 1474.42,-176.404 1475.38,-183.339"/>
</g>
<!-- 12&#45;&gt;9 -->
<g id="edge58" class="edge"><title>12&#45;&gt;9</title>
<path fill="none" stroke="grey" stroke-width="2" d="M421.658,-217.53C424.635,-216.953 427.593,-216.437 430.5,-216 946.935,-138.348 1089.33,-245.028 1611.72,-179.918"/>
<polygon fill="grey" stroke="grey" stroke-width="2" points="1612.29,-183.373 1621.78,-178.649 1611.42,-176.428 1612.29,-183.373"/>
</g>
<!-- 12&#45;&gt;18 -->
<g id="edge79" class="edge"><title>12&#45;&gt;18</title>
<path fill="none" stroke="grey" stroke-width="2" d="M421.68,-217.665C424.65,-217.052 427.601,-216.491 430.5,-216 692.667,-171.576 1010.24,-164.091 1145.88,-163.036"/>
<polygon fill="grey" stroke="grey" stroke-width="2" points="1146.13,-166.534 1156.1,-162.966 1146.08,-159.534 1146.13,-166.534"/>
</g>
<!-- 13 -->
<g id="node14" class="node"><title>13</title>
<path fill="none" stroke="#8fd856" stroke-width="2" stroke-dasharray="5,2" d="M561.5,-257C561.5,-257 451.5,-257 451.5,-257 445.5,-257 439.5,-251 439.5,-245 439.5,-245 439.5,-228 439.5,-228 439.5,-222 445.5,-216 451.5,-216 451.5,-216 561.5,-216 561.5,-216 567.5,-216 573.5,-222 573.5,-228 573.5,-228 573.5,-245 573.5,-245 573.5,-251 567.5,-257 561.5,-257"/>
<text text-anchor="middle" x="506.5" y="-245" font-family="sans" font-size="10.00">download_annotations</text>
<text text-anchor="middle" x="506.5" y="-234" font-family="sans" font-size="10.00">cell: HepG2</text>
<text text-anchor="middle" x="506.5" y="-223" font-family="sans" font-size="10.00">region: typicalEnhancers</text>
</g>
<!-- 13&#45;&gt;0 -->
<g id="edge17" class="edge"><title>13&#45;&gt;0</title>
<path fill="none" stroke="grey" stroke-width="2" d="M573.901,-217.463C576.797,-216.924 579.672,-216.432 582.5,-216 884.978,-169.834 968.313,-213.279 1276.34,-180.037"/>
<polygon fill="grey" stroke="grey" stroke-width="2" points="1276.9,-183.497 1286.46,-178.927 1276.13,-176.539 1276.9,-183.497"/>
</g>
<!-- 13&#45;&gt;3 -->
<g id="edge37" class="edge"><title>13&#45;&gt;3</title>
<path fill="none" stroke="grey" stroke-width="2" d="M573.895,-217.422C576.792,-216.894 579.67,-216.415 582.5,-216 972.239,-158.799 1080.44,-234.517 1474.84,-179.886"/>
<polygon fill="grey" stroke="grey" stroke-width="2" points="1475.39,-183.344 1484.8,-178.487 1474.42,-176.412 1475.39,-183.344"/>
</g>
<!-- 13&#45;&gt;9 -->
<g id="edge57" class="edge"><title>13&#45;&gt;9</title>
<path fill="none" stroke="grey" stroke-width="2" d="M573.892,-217.403C576.79,-216.88 579.669,-216.408 582.5,-216 1032.56,-151.177 1156.43,-237.605 1611.65,-179.932"/>
<polygon fill="grey" stroke="grey" stroke-width="2" points="1612.3,-183.377 1621.78,-178.632 1611.41,-176.434 1612.3,-183.377"/>
</g>
<!-- 13&#45;&gt;18 -->
<g id="edge78" class="edge"><title>13&#45;&gt;18</title>
<path fill="none" stroke="grey" stroke-width="2" d="M573.506,-217.66C576.537,-217.058 579.545,-216.5 582.5,-216 786.304,-181.53 1031.18,-169.094 1146.41,-164.927"/>
<polygon fill="grey" stroke="grey" stroke-width="2" points="1146.62,-168.422 1156.49,-164.572 1146.37,-161.426 1146.62,-168.422"/>
</g>
<!-- 14 -->
<g id="node15" class="node"><title>14</title>
<path fill="none" stroke="#8fd856" stroke-width="2" stroke-dasharray="5,2" d="M711,-257C711,-257 604,-257 604,-257 598,-257 592,-251 592,-245 592,-245 592,-228 592,-228 592,-222 598,-216 604,-216 604,-216 711,-216 711,-216 717,-216 723,-222 723,-228 723,-228 723,-245 723,-245 723,-251 717,-257 711,-257"/>
<text text-anchor="middle" x="657.5" y="-245" font-family="sans" font-size="10.00">download_annotations</text>
<text text-anchor="middle" x="657.5" y="-234" font-family="sans" font-size="10.00">cell: GM12878</text>
<text text-anchor="middle" x="657.5" y="-223" font-family="sans" font-size="10.00">region: stretchEnhancer</text>
</g>
<!-- 14&#45;&gt;0 -->
<g id="edge2" class="edge"><title>14&#45;&gt;0</title>
<path fill="none" stroke="grey" stroke-width="2" d="M723.201,-217.67C726.334,-217.056 729.445,-216.493 732.5,-216 968.867,-177.816 1034.65,-207.738 1276.3,-180.057"/>
<polygon fill="grey" stroke="grey" stroke-width="2" points="1276.92,-183.508 1286.45,-178.872 1276.11,-176.555 1276.92,-183.508"/>
</g>
<!-- 14&#45;&gt;3 -->
<g id="edge22" class="edge"><title>14&#45;&gt;3</title>
<path fill="none" stroke="grey" stroke-width="2" d="M723.191,-217.604C726.326,-217.007 729.441,-216.467 732.5,-216 1055.98,-166.651 1146.51,-226.515 1474.53,-179.939"/>
<polygon fill="grey" stroke="grey" stroke-width="2" points="1475.4,-183.349 1484.8,-178.457 1474.4,-176.421 1475.4,-183.349"/>
</g>
<!-- 14&#45;&gt;9 -->
<g id="edge42" class="edge"><title>14&#45;&gt;9</title>
<path fill="none" stroke="grey" stroke-width="2" d="M723.186,-217.575C726.323,-216.986 729.439,-216.455 732.5,-216 1116.37,-158.915 1222.65,-230.24 1611.65,-179.937"/>
<polygon fill="grey" stroke="grey" stroke-width="2" points="1612.31,-183.381 1621.77,-178.609 1611.4,-176.44 1612.31,-183.381"/>
</g>
<!-- 14&#45;&gt;18 -->
<g id="edge63" class="edge"><title>14&#45;&gt;18</title>
<path fill="none" stroke="grey" stroke-width="2" d="M723.23,-217.837C726.355,-217.178 729.457,-216.561 732.5,-216 878.929,-189.026 1053.2,-173.971 1146.21,-167.279"/>
<polygon fill="grey" stroke="grey" stroke-width="2" points="1146.59,-170.76 1156.32,-166.561 1146.1,-163.778 1146.59,-170.76"/>
</g>
<!-- 15 -->
<g id="node16" class="node"><title>15</title>
<path fill="none" stroke="#8fd856" stroke-width="2" stroke-dasharray="5,2" d="M853.5,-257C853.5,-257 753.5,-257 753.5,-257 747.5,-257 741.5,-251 741.5,-245 741.5,-245 741.5,-228 741.5,-228 741.5,-222 747.5,-216 753.5,-216 753.5,-216 853.5,-216 853.5,-216 859.5,-216 865.5,-222 865.5,-228 865.5,-228 865.5,-245 865.5,-245 865.5,-251 859.5,-257 853.5,-257"/>
<text text-anchor="middle" x="803.5" y="-245" font-family="sans" font-size="10.00">download_annotations</text>
<text text-anchor="middle" x="803.5" y="-234" font-family="sans" font-size="10.00">cell: HepG2</text>
<text text-anchor="middle" x="803.5" y="-223" font-family="sans" font-size="10.00">region: broadDomains</text>
</g>
<!-- 15&#45;&gt;0 -->
<g id="edge3" class="edge"><title>15&#45;&gt;0</title>
<path fill="none" stroke="grey" stroke-width="2" d="M865.693,-217.742C868.66,-217.108 871.607,-216.522 874.5,-216 1048.27,-184.637 1097.42,-202.56 1276.42,-180.067"/>
<polygon fill="grey" stroke="grey" stroke-width="2" points="1276.96,-183.526 1286.44,-178.783 1276.07,-176.583 1276.96,-183.526"/>
</g>
<!-- 15&#45;&gt;3 -->
<g id="edge23" class="edge"><title>15&#45;&gt;3</title>
<path fill="none" stroke="grey" stroke-width="2" d="M865.675,-217.636C868.647,-217.031 871.599,-216.48 874.5,-216 1135.28,-172.862 1209.15,-219.018 1474.85,-179.904"/>
<polygon fill="grey" stroke="grey" stroke-width="2" points="1475.42,-183.358 1484.79,-178.414 1474.39,-176.435 1475.42,-183.358"/>
</g>
<!-- 15&#45;&gt;9 -->
<g id="edge43" class="edge"><title>15&#45;&gt;9</title>
<path fill="none" stroke="grey" stroke-width="2" d="M865.669,-217.596C868.642,-217.002 871.597,-216.464 874.5,-216 1195.45,-164.735 1285.3,-223.241 1611.55,-179.958"/>
<polygon fill="grey" stroke="grey" stroke-width="2" points="1612.33,-183.385 1621.77,-178.58 1611.39,-176.448 1612.33,-183.385"/>
</g>
<!-- 15&#45;&gt;18 -->
<g id="edge64" class="edge"><title>15&#45;&gt;18</title>
<path fill="none" stroke="grey" stroke-width="2" d="M865.74,-217.98C868.695,-217.282 871.626,-216.618 874.5,-216 967.985,-195.899 1077.56,-180.12 1146.01,-171.176"/>
<polygon fill="grey" stroke="grey" stroke-width="2" points="1146.76,-174.61 1156.22,-169.853 1145.86,-167.668 1146.76,-174.61"/>
</g>
<!-- 16 -->
<g id="node17" class="node"><title>16</title>
<path fill="none" stroke="#8fd856" stroke-width="2" stroke-dasharray="5,2" d="M1003,-257C1003,-257 896,-257 896,-257 890,-257 884,-251 884,-245 884,-245 884,-228 884,-228 884,-222 890,-216 896,-216 896,-216 1003,-216 1003,-216 1009,-216 1015,-222 1015,-228 1015,-228 1015,-245 1015,-245 1015,-251 1009,-257 1003,-257"/>
<text text-anchor="middle" x="949.5" y="-245" font-family="sans" font-size="10.00">download_annotations</text>
<text text-anchor="middle" x="949.5" y="-234" font-family="sans" font-size="10.00">cell: H1</text>
<text text-anchor="middle" x="949.5" y="-223" font-family="sans" font-size="10.00">region: stretchEnhancer</text>
</g>
<!-- 16&#45;&gt;0 -->
<g id="edge12" class="edge"><title>16&#45;&gt;0</title>
<path fill="none" stroke="grey" stroke-width="2" d="M1015.25,-217.956C1018.37,-217.265 1021.47,-216.608 1024.5,-216 1132.71,-194.307 1163.56,-197.411 1276.34,-180.146"/>
<polygon fill="grey" stroke="grey" stroke-width="2" points="1277.06,-183.575 1286.41,-178.583 1275.99,-176.657 1277.06,-183.575"/>
</g>
<!-- 16&#45;&gt;3 -->
<g id="edge32" class="edge"><title>16&#45;&gt;3</title>
<path fill="none" stroke="grey" stroke-width="2" d="M1015.21,-217.722C1018.34,-217.094 1021.45,-216.514 1024.5,-216 1219.59,-183.112 1275.22,-211.22 1474.86,-179.926"/>
<polygon fill="grey" stroke="grey" stroke-width="2" points="1475.46,-183.374 1484.78,-178.34 1474.36,-176.462 1475.46,-183.374"/>
</g>
<!-- 16&#45;&gt;9 -->
<g id="edge52" class="edge"><title>16&#45;&gt;9</title>
<path fill="none" stroke="grey" stroke-width="2" d="M1015.2,-217.652C1018.33,-217.042 1021.44,-216.486 1024.5,-216 1279.79,-175.389 1351.5,-216.002 1611.63,-179.961"/>
<polygon fill="grey" stroke="grey" stroke-width="2" points="1612.35,-183.395 1621.76,-178.533 1611.37,-176.464 1612.35,-183.395"/>
</g>
<!-- 16&#45;&gt;18 -->
<g id="edge73" class="edge"><title>16&#45;&gt;18</title>
<path fill="none" stroke="grey" stroke-width="2" d="M1015.19,-217.392C1055.25,-206.349 1106.28,-192.28 1146.41,-181.218"/>
<polygon fill="grey" stroke="grey" stroke-width="2" points="1147.4,-184.578 1156.11,-178.546 1145.54,-177.829 1147.4,-184.578"/>
</g>
<!-- 17 -->
<g id="node18" class="node"><title>17</title>
<path fill="none" stroke="#8fd856" stroke-width="2" stroke-dasharray="5,2" d="M1145.5,-257C1145.5,-257 1045.5,-257 1045.5,-257 1039.5,-257 1033.5,-251 1033.5,-245 1033.5,-245 1033.5,-228 1033.5,-228 1033.5,-222 1039.5,-216 1045.5,-216 1045.5,-216 1145.5,-216 1145.5,-216 1151.5,-216 1157.5,-222 1157.5,-228 1157.5,-228 1157.5,-245 1157.5,-245 1157.5,-251 1151.5,-257 1145.5,-257"/>
<text text-anchor="middle" x="1095.5" y="-245" font-family="sans" font-size="10.00">download_annotations</text>
<text text-anchor="middle" x="1095.5" y="-234" font-family="sans" font-size="10.00">cell: K562</text>
<text text-anchor="middle" x="1095.5" y="-223" font-family="sans" font-size="10.00">region: broadDomains</text>
</g>
<!-- 17&#45;&gt;0 -->
<g id="edge20" class="edge"><title>17&#45;&gt;0</title>
<path fill="none" stroke="grey" stroke-width="2" d="M1157.82,-218.306C1160.75,-217.521 1163.66,-216.749 1166.5,-216 1209.74,-204.607 1258.12,-192.362 1297.54,-182.515"/>
<polygon fill="grey" stroke="grey" stroke-width="2" points="1298.51,-185.881 1307.36,-180.065 1296.81,-179.089 1298.51,-185.881"/>
</g>
<!-- 17&#45;&gt;3 -->
<g id="edge40" class="edge"><title>17&#45;&gt;3</title>
<path fill="none" stroke="grey" stroke-width="2" d="M1157.71,-217.838C1160.67,-217.179 1163.61,-216.561 1166.5,-216 1299.04,-190.233 1337.64,-203.907 1474.72,-179.993"/>
<polygon fill="grey" stroke="grey" stroke-width="2" points="1475.53,-183.404 1484.76,-178.206 1474.3,-176.513 1475.53,-183.404"/>
</g>
<!-- 17&#45;&gt;9 -->
<g id="edge60" class="edge"><title>17&#45;&gt;9</title>
<path fill="none" stroke="grey" stroke-width="2" d="M1157.69,-217.711C1160.66,-217.085 1163.6,-216.51 1166.5,-216 1359.1,-182.087 1414.1,-209.126 1611.62,-179.984"/>
<polygon fill="grey" stroke="grey" stroke-width="2" points="1612.38,-183.409 1621.75,-178.46 1611.34,-176.487 1612.38,-183.409"/>
</g>
<!-- 17&#45;&gt;18 -->
<g id="edge81" class="edge"><title>17&#45;&gt;18</title>
<path fill="none" stroke="grey" stroke-width="2" d="M1127.16,-215.88C1142.21,-206.556 1160.28,-195.356 1175.92,-185.669"/>
<polygon fill="grey" stroke="grey" stroke-width="2" points="1178.14,-188.409 1184.8,-180.166 1174.45,-182.459 1178.14,-188.409"/>
</g>
<!-- 18&#45;&gt;11 -->
<g id="edge61" class="edge"><title>18&#45;&gt;11</title>
<path fill="none" stroke="grey" stroke-width="2" d="M1236.96,-143.876C1249.8,-134.893 1265.7,-123.763 1279.59,-114.034"/>
<polygon fill="grey" stroke="grey" stroke-width="2" points="1281.76,-116.792 1287.94,-108.19 1277.74,-111.057 1281.76,-116.792"/>
</g>
<!-- 19 -->
<g id="node20" class="node"><title>19</title>
<path fill="none" stroke="#8fd856" stroke-width="2" stroke-dasharray="5,2" d="M1287.5,-257C1287.5,-257 1187.5,-257 1187.5,-257 1181.5,-257 1175.5,-251 1175.5,-245 1175.5,-245 1175.5,-228 1175.5,-228 1175.5,-222 1181.5,-216 1187.5,-216 1187.5,-216 1287.5,-216 1287.5,-216 1293.5,-216 1299.5,-222 1299.5,-228 1299.5,-228 1299.5,-245 1299.5,-245 1299.5,-251 1293.5,-257 1287.5,-257"/>
<text text-anchor="middle" x="1237.5" y="-245" font-family="sans" font-size="10.00">download_annotations</text>
<text text-anchor="middle" x="1237.5" y="-234" font-family="sans" font-size="10.00">cell: HepG2</text>
<text text-anchor="middle" x="1237.5" y="-223" font-family="sans" font-size="10.00">region: hotRegions</text>
</g>
<!-- 19&#45;&gt;0 -->
<g id="edge11" class="edge"><title>19&#45;&gt;0</title>
<path fill="none" stroke="grey" stroke-width="2" d="M1275.12,-215.88C1293.49,-206.294 1315.67,-194.727 1334.59,-184.858"/>
<polygon fill="grey" stroke="grey" stroke-width="2" points="1336.34,-187.894 1343.59,-180.166 1333.1,-181.688 1336.34,-187.894"/>
</g>
<!-- 19&#45;&gt;3 -->
<g id="edge31" class="edge"><title>19&#45;&gt;3</title>
<path fill="none" stroke="grey" stroke-width="2" d="M1299.79,-218.182C1302.73,-217.43 1305.64,-216.699 1308.5,-216 1379.22,-198.679 1399.85,-197.183 1474.77,-180.126"/>
<polygon fill="grey" stroke="grey" stroke-width="2" points="1475.72,-183.498 1484.69,-177.85 1474.16,-176.676 1475.72,-183.498"/>
</g>
<!-- 19&#45;&gt;9 -->
<g id="edge51" class="edge"><title>19&#45;&gt;9</title>
<path fill="none" stroke="grey" stroke-width="2" d="M1299.71,-217.845C1302.67,-217.184 1305.61,-216.564 1308.5,-216 1438.9,-190.521 1476.66,-202.475 1611.83,-179.998"/>
<polygon fill="grey" stroke="grey" stroke-width="2" points="1612.45,-183.441 1621.73,-178.319 1611.28,-176.54 1612.45,-183.441"/>
</g>
<!-- 19&#45;&gt;18 -->
<g id="edge72" class="edge"><title>19&#45;&gt;18</title>
<path fill="none" stroke="grey" stroke-width="2" d="M1230.67,-215.689C1227.93,-207.734 1224.72,-198.438 1221.77,-189.888"/>
<polygon fill="grey" stroke="grey" stroke-width="2" points="1225.04,-188.632 1218.47,-180.319 1218.42,-190.914 1225.04,-188.632"/>
</g>
<!-- 20 -->
<g id="node21" class="node"><title>20</title>
<path fill="none" stroke="#8fd856" stroke-width="2" stroke-dasharray="5,2" d="M1435.5,-257C1435.5,-257 1329.5,-257 1329.5,-257 1323.5,-257 1317.5,-251 1317.5,-245 1317.5,-245 1317.5,-228 1317.5,-228 1317.5,-222 1323.5,-216 1329.5,-216 1329.5,-216 1435.5,-216 1435.5,-216 1441.5,-216 1447.5,-222 1447.5,-228 1447.5,-228 1447.5,-245 1447.5,-245 1447.5,-251 1441.5,-257 1435.5,-257"/>
<text text-anchor="middle" x="1382.5" y="-245" font-family="sans" font-size="10.00">download_annotations</text>
<text text-anchor="middle" x="1382.5" y="-234" font-family="sans" font-size="10.00">cell: H1</text>
<text text-anchor="middle" x="1382.5" y="-223" font-family="sans" font-size="10.00">region: superEnhancers</text>
</g>
<!-- 20&#45;&gt;0 -->
<g id="edge14" class="edge"><title>20&#45;&gt;0</title>
<path fill="none" stroke="grey" stroke-width="2" d="M1380.86,-215.689C1380.22,-207.907 1379.47,-198.842 1378.77,-190.447"/>
<polygon fill="grey" stroke="grey" stroke-width="2" points="1382.25,-189.997 1377.93,-180.319 1375.27,-190.574 1382.25,-189.997"/>
</g>
<!-- 20&#45;&gt;3 -->
<g id="edge34" class="edge"><title>20&#45;&gt;3</title>
<path fill="none" stroke="grey" stroke-width="2" d="M1426.34,-215.88C1448.23,-206.083 1474.75,-194.217 1497.11,-184.209"/>
<polygon fill="grey" stroke="grey" stroke-width="2" points="1498.71,-187.325 1506.41,-180.046 1495.85,-180.936 1498.71,-187.325"/>
</g>
<!-- 20&#45;&gt;9 -->
<g id="edge54" class="edge"><title>20&#45;&gt;9</title>
<path fill="none" stroke="grey" stroke-width="2" d="M1447.84,-218.16C1450.77,-217.422 1453.66,-216.699 1456.5,-216 1471.69,-212.258 1550.31,-194.267 1611.66,-180.272"/>
<polygon fill="grey" stroke="grey" stroke-width="2" points="1612.77,-183.611 1621.74,-177.975 1611.21,-176.786 1612.77,-183.611"/>
</g>
<!-- 20&#45;&gt;18 -->
<g id="edge75" class="edge"><title>20&#45;&gt;18</title>
<path fill="none" stroke="grey" stroke-width="2" d="M1336.5,-215.88C1313.42,-206.039 1285.45,-194.111 1261.92,-184.075"/>
<polygon fill="grey" stroke="grey" stroke-width="2" points="1263.04,-180.749 1252.47,-180.046 1260.29,-187.188 1263.04,-180.749"/>
</g>
<!-- 21 -->
<g id="node22" class="node"><title>21</title>
<path fill="none" stroke="#8fd856" stroke-width="2" stroke-dasharray="5,2" d="M1585,-257C1585,-257 1478,-257 1478,-257 1472,-257 1466,-251 1466,-245 1466,-245 1466,-228 1466,-228 1466,-222 1472,-216 1478,-216 1478,-216 1585,-216 1585,-216 1591,-216 1597,-222 1597,-228 1597,-228 1597,-245 1597,-245 1597,-251 1591,-257 1585,-257"/>
<text text-anchor="middle" x="1531.5" y="-245" font-family="sans" font-size="10.00">download_annotations</text>
<text text-anchor="middle" x="1531.5" y="-234" font-family="sans" font-size="10.00">cell: K562</text>
<text text-anchor="middle" x="1531.5" y="-223" font-family="sans" font-size="10.00">region: stretchEnhancer</text>
</g>
<!-- 21&#45;&gt;0 -->
<g id="edge15" class="edge"><title>21&#45;&gt;0</title>
<path fill="none" stroke="grey" stroke-width="2" d="M1489.55,-215.88C1468.7,-206.127 1443.47,-194.323 1422.13,-184.343"/>
<polygon fill="grey" stroke="grey" stroke-width="2" points="1423.48,-181.112 1412.94,-180.046 1420.52,-187.453 1423.48,-181.112"/>
</g>
<!-- 21&#45;&gt;3 -->
<g id="edge35" class="edge"><title>21&#45;&gt;3</title>
<path fill="none" stroke="grey" stroke-width="2" d="M1535.05,-215.689C1536.46,-207.82 1538.11,-198.64 1539.63,-190.168"/>
<polygon fill="grey" stroke="grey" stroke-width="2" points="1543.07,-190.78 1541.39,-180.319 1536.18,-189.545 1543.07,-190.78"/>
</g>
<!-- 21&#45;&gt;9 -->
<g id="edge55" class="edge"><title>21&#45;&gt;9</title>
<path fill="none" stroke="grey" stroke-width="2" d="M1573.72,-215.88C1594.7,-206.127 1620.1,-194.323 1641.57,-184.343"/>
<polygon fill="grey" stroke="grey" stroke-width="2" points="1643.23,-187.434 1650.82,-180.046 1640.28,-181.086 1643.23,-187.434"/>
</g>
<!-- 21&#45;&gt;18 -->
<g id="edge76" class="edge"><title>21&#45;&gt;18</title>
<path fill="none" stroke="grey" stroke-width="2" d="M1465.7,-218.17C1462.59,-217.422 1459.52,-216.695 1456.5,-216 1380.51,-198.495 1358.28,-198.264 1278.81,-180.231"/>
<polygon fill="grey" stroke="grey" stroke-width="2" points="1279.35,-176.765 1268.82,-177.941 1277.79,-183.588 1279.35,-176.765"/>
</g>
<!-- 23 -->
<g id="node24" class="node"><title>23</title>
<path fill="none" stroke="#8fd856" stroke-width="2" stroke-dasharray="5,2" d="M1737.5,-257C1737.5,-257 1627.5,-257 1627.5,-257 1621.5,-257 1615.5,-251 1615.5,-245 1615.5,-245 1615.5,-228 1615.5,-228 1615.5,-222 1621.5,-216 1627.5,-216 1627.5,-216 1737.5,-216 1737.5,-216 1743.5,-216 1749.5,-222 1749.5,-228 1749.5,-228 1749.5,-245 1749.5,-245 1749.5,-251 1743.5,-257 1737.5,-257"/>
<text text-anchor="middle" x="1682.5" y="-245" font-family="sans" font-size="10.00">download_annotations</text>
<text text-anchor="middle" x="1682.5" y="-234" font-family="sans" font-size="10.00">cell: H1</text>
<text text-anchor="middle" x="1682.5" y="-223" font-family="sans" font-size="10.00">region: typicalEnhancers</text>
</g>
<!-- 23&#45;&gt;0 -->
<g id="edge16" class="edge"><title>23&#45;&gt;0</title>
<path fill="none" stroke="grey" stroke-width="2" d="M1615.33,-218.402C1612.01,-217.584 1608.72,-216.779 1605.5,-216 1558.04,-204.499 1504.9,-192.168 1461.77,-182.297"/>
<polygon fill="grey" stroke="grey" stroke-width="2" points="1462.41,-178.853 1451.88,-180.036 1460.85,-185.677 1462.41,-178.853"/>
</g>
<!-- 23&#45;&gt;3 -->
<g id="edge36" class="edge"><title>23&#45;&gt;3</title>
<path fill="none" stroke="grey" stroke-width="2" d="M1645.16,-215.88C1626.91,-206.294 1604.89,-194.727 1586.11,-184.858"/>
<polygon fill="grey" stroke="grey" stroke-width="2" points="1587.66,-181.719 1577.18,-180.166 1584.4,-187.916 1587.66,-181.719"/>
</g>
<!-- 23&#45;&gt;9 -->
<g id="edge56" class="edge"><title>23&#45;&gt;9</title>
<path fill="none" stroke="grey" stroke-width="2" d="M1683.87,-215.689C1684.4,-207.907 1685.03,-198.842 1685.61,-190.447"/>
<polygon fill="grey" stroke="grey" stroke-width="2" points="1689.11,-190.537 1686.31,-180.319 1682.13,-190.055 1689.11,-190.537"/>
</g>
<!-- 23&#45;&gt;18 -->
<g id="edge77" class="edge"><title>23&#45;&gt;18</title>
<path fill="none" stroke="grey" stroke-width="2" d="M1615.43,-217.931C1612.08,-217.238 1608.76,-216.588 1605.5,-216 1464.42,-190.521 1423.54,-205.897 1278.89,-180.097"/>
<polygon fill="grey" stroke="grey" stroke-width="2" points="1279.22,-176.599 1268.76,-178.252 1277.97,-183.486 1279.22,-176.599"/>
</g>
<!-- 24&#45;&gt;22 -->
<g id="edge82" class="edge"><title>24&#45;&gt;22</title>
<path fill="none" stroke="grey" stroke-width="2" d="M1442.21,-71.6966C1433.07,-63.0503 1421.86,-52.4486 1411.9,-43.027"/>
<polygon fill="grey" stroke="grey" stroke-width="2" points="1414.25,-40.4337 1404.58,-36.1043 1409.44,-45.519 1414.25,-40.4337"/>
</g>
<!-- 25 -->
<g id="node26" class="node"><title>25</title>
<path fill="none" stroke="#8fd856" stroke-width="2" stroke-dasharray="5,2" d="M1879.5,-257C1879.5,-257 1779.5,-257 1779.5,-257 1773.5,-257 1767.5,-251 1767.5,-245 1767.5,-245 1767.5,-228 1767.5,-228 1767.5,-222 1773.5,-216 1779.5,-216 1779.5,-216 1879.5,-216 1879.5,-216 1885.5,-216 1891.5,-222 1891.5,-228 1891.5,-228 1891.5,-245 1891.5,-245 1891.5,-251 1885.5,-257 1879.5,-257"/>
<text text-anchor="middle" x="1829.5" y="-245" font-family="sans" font-size="10.00">download_annotations</text>
<text text-anchor="middle" x="1829.5" y="-234" font-family="sans" font-size="10.00">cell: K562</text>
<text text-anchor="middle" x="1829.5" y="-223" font-family="sans" font-size="10.00">region: hotRegions</text>
</g>
<!-- 25&#45;&gt;0 -->
<g id="edge4" class="edge"><title>25&#45;&gt;0</title>
<path fill="none" stroke="grey" stroke-width="2" d="M1767.28,-217.876C1764.32,-217.206 1761.38,-216.576 1758.5,-216 1637.32,-191.779 1602.65,-198.369 1476.62,-180.118"/>
<polygon fill="grey" stroke="grey" stroke-width="2" points="1476.98,-176.634 1466.58,-178.64 1475.96,-183.559 1476.98,-176.634"/>
</g>
<!-- 25&#45;&gt;3 -->
<g id="edge24" class="edge"><title>25&#45;&gt;3</title>
<path fill="none" stroke="grey" stroke-width="2" d="M1767.19,-218.286C1764.25,-217.507 1761.35,-216.741 1758.5,-216 1696.86,-199.938 1679.01,-196.42 1614.13,-180.395"/>
<polygon fill="grey" stroke="grey" stroke-width="2" points="1614.75,-176.944 1604.2,-177.937 1613.07,-183.738 1614.75,-176.944"/>
</g>
<!-- 25&#45;&gt;9 -->
<g id="edge44" class="edge"><title>25&#45;&gt;9</title>
<path fill="none" stroke="grey" stroke-width="2" d="M1791.07,-215.88C1772.21,-206.251 1749.43,-194.622 1730.05,-184.724"/>
<polygon fill="grey" stroke="grey" stroke-width="2" points="1731.62,-181.596 1721.12,-180.166 1728.44,-187.831 1731.62,-181.596"/>
</g>
<!-- 25&#45;&gt;18 -->
<g id="edge65" class="edge"><title>25&#45;&gt;18</title>
<path fill="none" stroke="grey" stroke-width="2" d="M1767.32,-217.69C1764.35,-217.07 1761.4,-216.501 1758.5,-216 1550.46,-179.995 1490.76,-214.198 1278.63,-179.999"/>
<polygon fill="grey" stroke="grey" stroke-width="2" points="1279.17,-176.542 1268.74,-178.374 1278.04,-183.449 1279.17,-176.542"/>
</g>
<!-- 26 -->
<g id="node27" class="node"><title>26</title>
<path fill="none" stroke="#8fd856" stroke-width="2" stroke-dasharray="5,2" d="M2031.5,-257C2031.5,-257 1921.5,-257 1921.5,-257 1915.5,-257 1909.5,-251 1909.5,-245 1909.5,-245 1909.5,-228 1909.5,-228 1909.5,-222 1915.5,-216 1921.5,-216 1921.5,-216 2031.5,-216 2031.5,-216 2037.5,-216 2043.5,-222 2043.5,-228 2043.5,-228 2043.5,-245 2043.5,-245 2043.5,-251 2037.5,-257 2031.5,-257"/>
<text text-anchor="middle" x="1976.5" y="-245" font-family="sans" font-size="10.00">download_annotations</text>
<text text-anchor="middle" x="1976.5" y="-234" font-family="sans" font-size="10.00">cell: K562</text>
<text text-anchor="middle" x="1976.5" y="-223" font-family="sans" font-size="10.00">region: typicalEnhancers</text>
</g>
<!-- 26&#45;&gt;0 -->
<g id="edge19" class="edge"><title>26&#45;&gt;0</title>
<path fill="none" stroke="grey" stroke-width="2" d="M1909.49,-217.662C1906.46,-217.059 1903.45,-216.501 1900.5,-216 1716.79,-184.875 1665.28,-203.404 1476.53,-180.057"/>
<polygon fill="grey" stroke="grey" stroke-width="2" points="1476.92,-176.579 1466.56,-178.801 1476.04,-183.524 1476.92,-176.579"/>
</g>
<!-- 26&#45;&gt;3 -->
<g id="edge39" class="edge"><title>26&#45;&gt;3</title>
<path fill="none" stroke="grey" stroke-width="2" d="M1909.47,-217.809C1906.44,-217.167 1903.44,-216.559 1900.5,-216 1776.99,-192.533 1741.11,-203.112 1614.22,-180.196"/>
<polygon fill="grey" stroke="grey" stroke-width="2" points="1614.58,-176.704 1604.11,-178.336 1613.32,-183.589 1614.58,-176.704"/>
</g>
<!-- 26&#45;&gt;9 -->
<g id="edge59" class="edge"><title>26&#45;&gt;9</title>
<path fill="none" stroke="grey" stroke-width="2" d="M1909.37,-218.248C1906.37,-217.486 1903.41,-216.734 1900.5,-216 1854.93,-204.486 1803.84,-191.765 1763.11,-181.672"/>
<polygon fill="grey" stroke="grey" stroke-width="2" points="1763.81,-178.239 1753.26,-179.231 1762.12,-185.033 1763.81,-178.239"/>
</g>
<!-- 26&#45;&gt;18 -->
<g id="edge80" class="edge"><title>26&#45;&gt;18</title>
<path fill="none" stroke="grey" stroke-width="2" d="M1909.1,-217.485C1906.2,-216.939 1903.33,-216.44 1900.5,-216 1629.8,-173.857 1553.31,-222.095 1278.99,-180.034"/>
<polygon fill="grey" stroke="grey" stroke-width="2" points="1279.15,-176.517 1268.73,-178.433 1278.07,-183.433 1279.15,-176.517"/>
</g>
</g>
</svg>
