<?xml version="1.0" encoding="UTF-8" standalone="no"?>
<!DOCTYPE svg PUBLIC "-//W3C//DTD SVG 1.1//EN"
 "http://www.w3.org/Graphics/SVG/1.1/DTD/svg11.dtd">
<!-- Generated by graphviz version 2.40.1 (20161225.0304)
 -->
<!-- Title: snakemake_dag Pages: 1 -->
<svg width="356pt" height="476pt"
 viewBox="0.00 0.00 355.50 476.00" xmlns="http://www.w3.org/2000/svg" xmlns:xlink="http://www.w3.org/1999/xlink">
<g id="graph0" class="graph" transform="scale(1 1) rotate(0) translate(4 472)">
<title>snakemake_dag</title>
<polygon fill="#ffffff" stroke="transparent" points="-4,4 -4,-472 351.5,-472 351.5,4 -4,4"/>
<!-- 0 -->
<g id="node1" class="node">
<title>0</title>
<path fill="none" stroke="#70d856" stroke-width="2" d="M211,-36C211,-36 181,-36 181,-36 175,-36 169,-30 169,-24 169,-24 169,-12 169,-12 169,-6 175,0 181,0 181,0 211,0 211,0 217,0 223,-6 223,-12 223,-12 223,-24 223,-24 223,-30 217,-36 211,-36"/>
<text text-anchor="middle" x="196" y="-15.5" font-family="sans" font-size="10.00" fill="#000000">final</text>
</g>
<!-- 1 -->
<g id="node2" class="node">
<title>1</title>
<path fill="none" stroke="#56c1d8" stroke-width="2" d="M211,-108C211,-108 181,-108 181,-108 175,-108 169,-102 169,-96 169,-96 169,-84 169,-84 169,-78 175,-72 181,-72 181,-72 211,-72 211,-72 217,-72 223,-78 223,-84 223,-84 223,-96 223,-96 223,-102 217,-108 211,-108"/>
<text text-anchor="middle" x="196" y="-87.5" font-family="sans" font-size="10.00" fill="#000000">plot</text>
</g>
<!-- 1&#45;&gt;0 -->
<g id="edge1" class="edge">
<title>1&#45;&gt;0</title>
<path fill="none" stroke="#c0c0c0" stroke-width="2" d="M196,-71.8314C196,-64.131 196,-54.9743 196,-46.4166"/>
<polygon fill="#c0c0c0" stroke="#c0c0c0" stroke-width="2" points="199.5001,-46.4132 196,-36.4133 192.5001,-46.4133 199.5001,-46.4132"/>
</g>
<!-- 2 -->
<g id="node3" class="node">
<title>2</title>
<path fill="none" stroke="#56d8d8" stroke-width="2" d="M241.5,-180C241.5,-180 150.5,-180 150.5,-180 144.5,-180 138.5,-174 138.5,-168 138.5,-168 138.5,-156 138.5,-156 138.5,-150 144.5,-144 150.5,-144 150.5,-144 241.5,-144 241.5,-144 247.5,-144 253.5,-150 253.5,-156 253.5,-156 253.5,-168 253.5,-168 253.5,-174 247.5,-180 241.5,-180"/>
<text text-anchor="middle" x="196" y="-159.5" font-family="sans" font-size="10.00" fill="#000000">computeEnrichment</text>
</g>
<!-- 2&#45;&gt;1 -->
<g id="edge2" class="edge">
<title>2&#45;&gt;1</title>
<path fill="none" stroke="#c0c0c0" stroke-width="2" d="M196,-143.8314C196,-136.131 196,-126.9743 196,-118.4166"/>
<polygon fill="#c0c0c0" stroke="#c0c0c0" stroke-width="2" points="199.5001,-118.4132 196,-108.4133 192.5001,-118.4133 199.5001,-118.4132"/>
</g>
<!-- 3 -->
<g id="node4" class="node">
<title>3</title>
<path fill="none" stroke="#d86e56" stroke-width="2" d="M200,-324C200,-324 12,-324 12,-324 6,-324 0,-318 0,-312 0,-312 0,-300 0,-300 0,-294 6,-288 12,-288 12,-288 200,-288 200,-288 206,-288 212,-294 212,-300 212,-300 212,-312 212,-312 212,-318 206,-324 200,-324"/>
<text text-anchor="middle" x="106" y="-303.5" font-family="sans" font-size="10.00" fill="#000000">randomlySubsampleGenes_multiThread</text>
</g>
<!-- 3&#45;&gt;2 -->
<g id="edge3" class="edge">
<title>3&#45;&gt;2</title>
<path fill="none" stroke="#c0c0c0" stroke-width="2" d="M117.3986,-287.7623C133.0198,-262.7682 161.1923,-217.6924 179.2245,-188.8409"/>
<polygon fill="#c0c0c0" stroke="#c0c0c0" stroke-width="2" points="182.362,-190.4246 184.694,-180.0896 176.426,-186.7146 182.362,-190.4246"/>
</g>
<!-- 4 -->
<g id="node5" class="node">
<title>4</title>
<path fill="none" stroke="#d8bc56" stroke-width="2" d="M333.5,-252C333.5,-252 202.5,-252 202.5,-252 196.5,-252 190.5,-246 190.5,-240 190.5,-240 190.5,-228 190.5,-228 190.5,-222 196.5,-216 202.5,-216 202.5,-216 333.5,-216 333.5,-216 339.5,-216 345.5,-222 345.5,-228 345.5,-228 345.5,-240 345.5,-240 345.5,-246 339.5,-252 333.5,-252"/>
<text text-anchor="middle" x="268" y="-231.5" font-family="sans" font-size="10.00" fill="#000000">merge_nearestDistanceFiles</text>
</g>
<!-- 4&#45;&gt;2 -->
<g id="edge4" class="edge">
<title>4&#45;&gt;2</title>
<path fill="none" stroke="#c0c0c0" stroke-width="2" d="M249.8314,-215.8314C241.2848,-207.2848 230.9443,-196.9443 221.6198,-187.6198"/>
<polygon fill="#c0c0c0" stroke="#c0c0c0" stroke-width="2" points="223.9592,-185.0095 214.4133,-180.4133 219.0095,-189.9592 223.9592,-185.0095"/>
</g>
<!-- 5 -->
<g id="node6" class="node">
<title>5</title>
<path fill="none" stroke="#d8a456" stroke-width="2" d="M183.5,-396C183.5,-396 80.5,-396 80.5,-396 74.5,-396 68.5,-390 68.5,-384 68.5,-384 68.5,-372 68.5,-372 68.5,-366 74.5,-360 80.5,-360 80.5,-360 183.5,-360 183.5,-360 189.5,-360 195.5,-366 195.5,-372 195.5,-372 195.5,-384 195.5,-384 195.5,-390 189.5,-396 183.5,-396"/>
<text text-anchor="middle" x="132" y="-375.5" font-family="sans" font-size="10.00" fill="#000000">download_annotations</text>
</g>
<!-- 5&#45;&gt;3 -->
<g id="edge6" class="edge">
<title>5&#45;&gt;3</title>
<path fill="none" stroke="#c0c0c0" stroke-width="2" d="M125.4391,-359.8314C122.5973,-351.9617 119.2063,-342.5712 116.0581,-333.8533"/>
<polygon fill="#c0c0c0" stroke="#c0c0c0" stroke-width="2" points="119.3377,-332.63 112.6492,-324.4133 112.7538,-335.0076 119.3377,-332.63"/>
</g>
<!-- 7 -->
<g id="node8" class="node">
<title>7</title>
<path fill="none" stroke="#56d8c1" stroke-width="2" d="M331.5,-324C331.5,-324 242.5,-324 242.5,-324 236.5,-324 230.5,-318 230.5,-312 230.5,-312 230.5,-300 230.5,-300 230.5,-294 236.5,-288 242.5,-288 242.5,-288 331.5,-288 331.5,-288 337.5,-288 343.5,-294 343.5,-300 343.5,-300 343.5,-312 343.5,-312 343.5,-318 337.5,-324 331.5,-324"/>
<text text-anchor="middle" x="287" y="-303.5" font-family="sans" font-size="10.00" fill="#000000">getNearestDistance</text>
</g>
<!-- 5&#45;&gt;7 -->
<g id="edge10" class="edge">
<title>5&#45;&gt;7</title>
<path fill="none" stroke="#c0c0c0" stroke-width="2" d="M171.113,-359.8314C191.7512,-350.2446 217.2484,-338.4008 239.0673,-328.2655"/>
<polygon fill="#c0c0c0" stroke="#c0c0c0" stroke-width="2" points="240.5734,-331.4251 248.1682,-324.038 237.6244,-325.0766 240.5734,-331.4251"/>
</g>
<!-- 6 -->
<g id="node7" class="node">
<title>6</title>
<path fill="none" stroke="#d6d856" stroke-width="2" d="M307,-396C307,-396 239,-396 239,-396 233,-396 227,-390 227,-384 227,-384 227,-372 227,-372 227,-366 233,-360 239,-360 239,-360 307,-360 307,-360 313,-360 319,-366 319,-372 319,-372 319,-384 319,-384 319,-390 313,-396 307,-396"/>
<text text-anchor="middle" x="273" y="-375.5" font-family="sans" font-size="10.00" fill="#000000">getGencodeTss</text>
</g>
<!-- 6&#45;&gt;3 -->
<g id="edge5" class="edge">
<title>6&#45;&gt;3</title>
<path fill="none" stroke="#c0c0c0" stroke-width="2" d="M230.8588,-359.8314C208.5236,-350.2018 180.9064,-338.295 157.329,-328.1299"/>
<polygon fill="#c0c0c0" stroke="#c0c0c0" stroke-width="2" points="158.4067,-324.7831 147.8381,-324.038 155.6353,-331.2112 158.4067,-324.7831"/>
</g>
<!-- 6&#45;&gt;7 -->
<g id="edge9" class="edge">
<title>6&#45;&gt;7</title>
<path fill="none" stroke="#c0c0c0" stroke-width="2" d="M276.5328,-359.8314C278.0301,-352.131 279.8105,-342.9743 281.4745,-334.4166"/>
<polygon fill="#c0c0c0" stroke="#c0c0c0" stroke-width="2" points="284.9465,-334.8975 283.4196,-324.4133 278.0752,-333.5614 284.9465,-334.8975"/>
</g>
<!-- 7&#45;&gt;4 -->
<g id="edge7" class="edge">
<title>7&#45;&gt;4</title>
<path fill="none" stroke="#c0c0c0" stroke-width="2" d="M282.2055,-287.8314C280.1511,-280.0463 277.704,-270.7729 275.4244,-262.1347"/>
<polygon fill="#c0c0c0" stroke="#c0c0c0" stroke-width="2" points="278.7948,-261.1892 272.8591,-252.4133 272.0265,-262.9753 278.7948,-261.1892"/>
</g>
<!-- 8 -->
<g id="node9" class="node">
<title>8</title>
<path fill="none" stroke="#59d856" stroke-width="2" d="M335.5,-468C335.5,-468 210.5,-468 210.5,-468 204.5,-468 198.5,-462 198.5,-456 198.5,-456 198.5,-444 198.5,-444 198.5,-438 204.5,-432 210.5,-432 210.5,-432 335.5,-432 335.5,-432 341.5,-432 347.5,-438 347.5,-444 347.5,-444 347.5,-456 347.5,-456 347.5,-462 341.5,-468 335.5,-468"/>
<text text-anchor="middle" x="273" y="-447.5" font-family="sans" font-size="10.00" fill="#000000">download_tss_pc_gene_list</text>
</g>
<!-- 8&#45;&gt;6 -->
<g id="edge8" class="edge">
<title>8&#45;&gt;6</title>
<path fill="none" stroke="#c0c0c0" stroke-width="2" d="M273,-431.8314C273,-424.131 273,-414.9743 273,-406.4166"/>
<polygon fill="#c0c0c0" stroke="#c0c0c0" stroke-width="2" points="276.5001,-406.4132 273,-396.4133 269.5001,-406.4133 276.5001,-406.4132"/>
</g>
</g>
</svg>
