<?xml version="1.0" encoding="UTF-8" standalone="no"?>
<!DOCTYPE svg PUBLIC "-//W3C//DTD SVG 1.1//EN"
 "http://www.w3.org/Graphics/SVG/1.1/DTD/svg11.dtd">
<!-- Generated by graphviz version 2.40.1 (20161225.0304)
 -->
<!-- Title: snakemake_dag Pages: 1 -->
<svg width="449pt" height="764pt"
 viewBox="0.00 0.00 449.00 764.00" xmlns="http://www.w3.org/2000/svg" xmlns:xlink="http://www.w3.org/1999/xlink">
<g id="graph0" class="graph" transform="scale(1 1) rotate(0) translate(4 760)">
<title>snakemake_dag</title>
<polygon fill="#ffffff" stroke="transparent" points="-4,4 -4,-760 445,-760 445,4 -4,4"/>
<!-- 0 -->
<g id="node1" class="node">
<title>0</title>
<path fill="none" stroke="#56d8d8" stroke-width="2" d="M142.5,-36C142.5,-36 112.5,-36 112.5,-36 106.5,-36 100.5,-30 100.5,-24 100.5,-24 100.5,-12 100.5,-12 100.5,-6 106.5,0 112.5,0 112.5,0 142.5,0 142.5,0 148.5,0 154.5,-6 154.5,-12 154.5,-12 154.5,-24 154.5,-24 154.5,-30 148.5,-36 142.5,-36"/>
<text text-anchor="middle" x="127.5" y="-15.5" font-family="sans" font-size="10.00" fill="#000000">final</text>
</g>
<!-- 1 -->
<g id="node2" class="node">
<title>1</title>
<path fill="none" stroke="#56d86b" stroke-width="2" d="M184.5,-108C184.5,-108 70.5,-108 70.5,-108 64.5,-108 58.5,-102 58.5,-96 58.5,-96 58.5,-84 58.5,-84 58.5,-78 64.5,-72 70.5,-72 70.5,-72 184.5,-72 184.5,-72 190.5,-72 196.5,-78 196.5,-84 196.5,-84 196.5,-96 196.5,-96 196.5,-102 190.5,-108 184.5,-108"/>
<text text-anchor="middle" x="127.5" y="-87.5" font-family="sans" font-size="10.00" fill="#000000">GREGOR_plotEnrichment</text>
</g>
<!-- 1&#45;&gt;0 -->
<g id="edge1" class="edge">
<title>1&#45;&gt;0</title>
<path fill="none" stroke="#c0c0c0" stroke-width="2" d="M127.5,-71.8314C127.5,-64.131 127.5,-54.9743 127.5,-46.4166"/>
<polygon fill="#c0c0c0" stroke="#c0c0c0" stroke-width="2" points="131.0001,-46.4132 127.5,-36.4133 124.0001,-46.4133 131.0001,-46.4132"/>
</g>
<!-- 2 -->
<g id="node3" class="node">
<title>2</title>
<path fill="none" stroke="#68d856" stroke-width="2" d="M183.5,-180C183.5,-180 71.5,-180 71.5,-180 65.5,-180 59.5,-174 59.5,-168 59.5,-168 59.5,-156 59.5,-156 59.5,-150 65.5,-144 71.5,-144 71.5,-144 183.5,-144 183.5,-144 189.5,-144 195.5,-150 195.5,-156 195.5,-156 195.5,-168 195.5,-168 195.5,-174 189.5,-180 183.5,-180"/>
<text text-anchor="middle" x="127.5" y="-159.5" font-family="sans" font-size="10.00" fill="#000000">GREGOR_assembleStats</text>
</g>
<!-- 2&#45;&gt;1 -->
<g id="edge2" class="edge">
<title>2&#45;&gt;1</title>
<path fill="none" stroke="#c0c0c0" stroke-width="2" d="M127.5,-143.8314C127.5,-136.131 127.5,-126.9743 127.5,-118.4166"/>
<polygon fill="#c0c0c0" stroke="#c0c0c0" stroke-width="2" points="131.0001,-118.4132 127.5,-108.4133 124.0001,-118.4133 131.0001,-118.4132"/>
</g>
<!-- 3 -->
<g id="node4" class="node">
<title>3</title>
<path fill="none" stroke="#56d8c1" stroke-width="2" d="M152.5,-252C152.5,-252 102.5,-252 102.5,-252 96.5,-252 90.5,-246 90.5,-240 90.5,-240 90.5,-228 90.5,-228 90.5,-222 96.5,-216 102.5,-216 102.5,-216 152.5,-216 152.5,-216 158.5,-216 164.5,-222 164.5,-228 164.5,-228 164.5,-240 164.5,-240 164.5,-246 158.5,-252 152.5,-252"/>
<text text-anchor="middle" x="127.5" y="-231.5" font-family="sans" font-size="10.00" fill="#000000">runGREGOR</text>
</g>
<!-- 3&#45;&gt;2 -->
<g id="edge3" class="edge">
<title>3&#45;&gt;2</title>
<path fill="none" stroke="#c0c0c0" stroke-width="2" d="M127.5,-215.8314C127.5,-208.131 127.5,-198.9743 127.5,-190.4166"/>
<polygon fill="#c0c0c0" stroke="#c0c0c0" stroke-width="2" points="131.0001,-190.4132 127.5,-180.4133 124.0001,-190.4133 131.0001,-190.4132"/>
</g>
<!-- 4 -->
<g id="node5" class="node">
<title>4</title>
<path fill="none" stroke="#56d89a" stroke-width="2" d="M158.5,-324C158.5,-324 96.5,-324 96.5,-324 90.5,-324 84.5,-318 84.5,-312 84.5,-312 84.5,-300 84.5,-300 84.5,-294 90.5,-288 96.5,-288 96.5,-288 158.5,-288 158.5,-288 164.5,-288 170.5,-294 170.5,-300 170.5,-300 170.5,-312 170.5,-312 170.5,-318 164.5,-324 158.5,-324"/>
<text text-anchor="middle" x="127.5" y="-303.5" font-family="sans" font-size="10.00" fill="#000000">setupGREGOR</text>
</g>
<!-- 4&#45;&gt;3 -->
<g id="edge4" class="edge">
<title>4&#45;&gt;3</title>
<path fill="none" stroke="#c0c0c0" stroke-width="2" d="M127.5,-287.8314C127.5,-280.131 127.5,-270.9743 127.5,-262.4166"/>
<polygon fill="#c0c0c0" stroke="#c0c0c0" stroke-width="2" points="131.0001,-262.4132 127.5,-252.4133 124.0001,-262.4133 131.0001,-262.4132"/>
</g>
<!-- 5 -->
<g id="node6" class="node">
<title>5</title>
<path fill="none" stroke="#afd856" stroke-width="2" d="M94.5,-396C94.5,-396 32.5,-396 32.5,-396 26.5,-396 20.5,-390 20.5,-384 20.5,-384 20.5,-372 20.5,-372 20.5,-366 26.5,-360 32.5,-360 32.5,-360 94.5,-360 94.5,-360 100.5,-360 106.5,-366 106.5,-372 106.5,-372 106.5,-384 106.5,-384 106.5,-390 100.5,-396 94.5,-396"/>
<text text-anchor="middle" x="63.5" y="-375.5" font-family="sans" font-size="10.00" fill="#000000">makeBedFiles</text>
</g>
<!-- 5&#45;&gt;4 -->
<g id="edge5" class="edge">
<title>5&#45;&gt;4</title>
<path fill="none" stroke="#c0c0c0" stroke-width="2" d="M79.6499,-359.8314C87.1717,-351.3694 96.2565,-341.1489 104.4804,-331.8971"/>
<polygon fill="#c0c0c0" stroke="#c0c0c0" stroke-width="2" points="107.1049,-334.2127 111.1327,-324.4133 101.873,-329.5621 107.1049,-334.2127"/>
</g>
<!-- 6 -->
<g id="node7" class="node">
<title>6</title>
<path fill="none" stroke="#56d882" stroke-width="2" d="M248.5,-396C248.5,-396 136.5,-396 136.5,-396 130.5,-396 124.5,-390 124.5,-384 124.5,-384 124.5,-372 124.5,-372 124.5,-366 130.5,-360 136.5,-360 136.5,-360 248.5,-360 248.5,-360 254.5,-360 260.5,-366 260.5,-372 260.5,-372 260.5,-384 260.5,-384 260.5,-390 254.5,-396 248.5,-396"/>
<text text-anchor="middle" x="192.5" y="-375.5" font-family="sans" font-size="10.00" fill="#000000">organize_pruned_results</text>
</g>
<!-- 6&#45;&gt;4 -->
<g id="edge6" class="edge">
<title>6&#45;&gt;4</title>
<path fill="none" stroke="#c0c0c0" stroke-width="2" d="M176.0978,-359.8314C168.4585,-351.3694 159.2317,-341.1489 150.8793,-331.8971"/>
<polygon fill="#c0c0c0" stroke="#c0c0c0" stroke-width="2" points="153.4221,-329.4906 144.1231,-324.4133 148.2262,-334.1813 153.4221,-329.4906"/>
</g>
<!-- 7 -->
<g id="node8" class="node">
<title>7</title>
<path fill="none" stroke="#80d856" stroke-width="2" d="M115,-468C115,-468 12,-468 12,-468 6,-468 0,-462 0,-456 0,-456 0,-444 0,-444 0,-438 6,-432 12,-432 12,-432 115,-432 115,-432 121,-432 127,-438 127,-444 127,-444 127,-456 127,-456 127,-462 121,-468 115,-468"/>
<text text-anchor="middle" x="63.5" y="-447.5" font-family="sans" font-size="10.00" fill="#000000">download_annotations</text>
</g>
<!-- 7&#45;&gt;5 -->
<g id="edge7" class="edge">
<title>7&#45;&gt;5</title>
<path fill="none" stroke="#c0c0c0" stroke-width="2" d="M63.5,-431.8314C63.5,-424.131 63.5,-414.9743 63.5,-406.4166"/>
<polygon fill="#c0c0c0" stroke="#c0c0c0" stroke-width="2" points="67.0001,-406.4132 63.5,-396.4133 60.0001,-406.4133 67.0001,-406.4132"/>
</g>
<!-- 8 -->
<g id="node9" class="node">
<title>8</title>
<path fill="none" stroke="#97d856" stroke-width="2" d="M217.5,-468C217.5,-468 167.5,-468 167.5,-468 161.5,-468 155.5,-462 155.5,-456 155.5,-456 155.5,-444 155.5,-444 155.5,-438 161.5,-432 167.5,-432 167.5,-432 217.5,-432 217.5,-432 223.5,-432 229.5,-438 229.5,-444 229.5,-444 229.5,-456 229.5,-456 229.5,-462 223.5,-468 217.5,-468"/>
<text text-anchor="middle" x="192.5" y="-447.5" font-family="sans" font-size="10.00" fill="#000000">prune_plink</text>
</g>
<!-- 8&#45;&gt;6 -->
<g id="edge8" class="edge">
<title>8&#45;&gt;6</title>
<path fill="none" stroke="#c0c0c0" stroke-width="2" d="M192.5,-431.8314C192.5,-424.131 192.5,-414.9743 192.5,-406.4166"/>
<polygon fill="#c0c0c0" stroke="#c0c0c0" stroke-width="2" points="196.0001,-406.4132 192.5,-396.4133 189.0001,-406.4133 196.0001,-406.4132"/>
</g>
<!-- 9 -->
<g id="node10" class="node">
<title>9</title>
<path fill="none" stroke="#59d856" stroke-width="2" d="M173.5,-540C173.5,-540 103.5,-540 103.5,-540 97.5,-540 91.5,-534 91.5,-528 91.5,-528 91.5,-516 91.5,-516 91.5,-510 97.5,-504 103.5,-504 103.5,-504 173.5,-504 173.5,-504 179.5,-504 185.5,-510 185.5,-516 185.5,-516 185.5,-528 185.5,-528 185.5,-534 179.5,-540 173.5,-540"/>
<text text-anchor="middle" x="138.5" y="-519.5" font-family="sans" font-size="10.00" fill="#000000">get_gwas_traits</text>
</g>
<!-- 9&#45;&gt;8 -->
<g id="edge9" class="edge">
<title>9&#45;&gt;8</title>
<path fill="none" stroke="#c0c0c0" stroke-width="2" d="M152.1265,-503.8314C158.346,-495.5386 165.8322,-485.557 172.66,-476.4533"/>
<polygon fill="#c0c0c0" stroke="#c0c0c0" stroke-width="2" points="175.49,-478.5133 178.69,-468.4133 169.89,-474.3133 175.49,-478.5133"/>
</g>
<!-- 10 -->
<g id="node11" class="node">
<title>10</title>
<path fill="none" stroke="#d6d856" stroke-width="2" d="M279.5,-540C279.5,-540 215.5,-540 215.5,-540 209.5,-540 203.5,-534 203.5,-528 203.5,-528 203.5,-516 203.5,-516 203.5,-510 209.5,-504 215.5,-504 215.5,-504 279.5,-504 279.5,-504 285.5,-504 291.5,-510 291.5,-516 291.5,-516 291.5,-528 291.5,-528 291.5,-534 285.5,-540 279.5,-540"/>
<text text-anchor="middle" x="247.5" y="-519.5" font-family="sans" font-size="10.00" fill="#000000">get_plink_files</text>
</g>
<!-- 10&#45;&gt;8 -->
<g id="edge10" class="edge">
<title>10&#45;&gt;8</title>
<path fill="none" stroke="#c0c0c0" stroke-width="2" d="M233.6212,-503.8314C227.2864,-495.5386 219.6616,-485.557 212.7074,-476.4533"/>
<polygon fill="#c0c0c0" stroke="#c0c0c0" stroke-width="2" points="215.4175,-474.2353 206.5657,-468.4133 209.8548,-478.4847 215.4175,-474.2353"/>
</g>
<!-- 11 -->
<g id="node12" class="node">
<title>11</title>
<path fill="none" stroke="#d8c356" stroke-width="2" d="M269.5,-612C269.5,-612 225.5,-612 225.5,-612 219.5,-612 213.5,-606 213.5,-600 213.5,-600 213.5,-588 213.5,-588 213.5,-582 219.5,-576 225.5,-576 225.5,-576 269.5,-576 269.5,-576 275.5,-576 281.5,-582 281.5,-588 281.5,-588 281.5,-600 281.5,-600 281.5,-606 275.5,-612 269.5,-612"/>
<text text-anchor="middle" x="247.5" y="-591.5" font-family="sans" font-size="10.00" fill="#000000">subsetVCF</text>
</g>
<!-- 11&#45;&gt;10 -->
<g id="edge11" class="edge">
<title>11&#45;&gt;10</title>
<path fill="none" stroke="#c0c0c0" stroke-width="2" d="M247.5,-575.8314C247.5,-568.131 247.5,-558.9743 247.5,-550.4166"/>
<polygon fill="#c0c0c0" stroke="#c0c0c0" stroke-width="2" points="251.0001,-550.4132 247.5,-540.4133 244.0001,-550.4133 251.0001,-550.4132"/>
</g>
<!-- 12 -->
<g id="node13" class="node">
<title>12</title>
<path fill="none" stroke="#c6d856" stroke-width="2" d="M167.5,-684C167.5,-684 39.5,-684 39.5,-684 33.5,-684 27.5,-678 27.5,-672 27.5,-672 27.5,-660 27.5,-660 27.5,-654 33.5,-648 39.5,-648 39.5,-648 167.5,-648 167.5,-648 173.5,-648 179.5,-654 179.5,-660 179.5,-660 179.5,-672 179.5,-672 179.5,-678 173.5,-684 167.5,-684"/>
<text text-anchor="middle" x="103.5" y="-663.5" font-family="sans" font-size="10.00" fill="#000000">makeFullSnpList_forPruning</text>
</g>
<!-- 12&#45;&gt;11 -->
<g id="edge13" class="edge">
<title>12&#45;&gt;11</title>
<path fill="none" stroke="#c0c0c0" stroke-width="2" d="M139.8373,-647.8314C159.3454,-638.0773 183.5265,-625.9867 204.027,-615.7365"/>
<polygon fill="#c0c0c0" stroke="#c0c0c0" stroke-width="2" points="205.7781,-618.7741 213.1571,-611.1715 202.6475,-612.5132 205.7781,-618.7741"/>
</g>
<!-- 13 -->
<g id="node14" class="node">
<title>13</title>
<path fill="none" stroke="#d89556" stroke-width="2" d="M285,-684C285,-684 210,-684 210,-684 204,-684 198,-678 198,-672 198,-672 198,-660 198,-660 198,-654 204,-648 210,-648 210,-648 285,-648 285,-648 291,-648 297,-654 297,-660 297,-660 297,-672 297,-672 297,-678 291,-684 285,-684"/>
<text text-anchor="middle" x="247.5" y="-663.5" font-family="sans" font-size="10.00" fill="#000000">download_1000g</text>
</g>
<!-- 13&#45;&gt;11 -->
<g id="edge14" class="edge">
<title>13&#45;&gt;11</title>
<path fill="none" stroke="#c0c0c0" stroke-width="2" d="M247.5,-647.8314C247.5,-640.131 247.5,-630.9743 247.5,-622.4166"/>
<polygon fill="#c0c0c0" stroke="#c0c0c0" stroke-width="2" points="251.0001,-622.4132 247.5,-612.4133 244.0001,-622.4133 251.0001,-622.4132"/>
</g>
<!-- 14 -->
<g id="node15" class="node">
<title>14</title>
<path fill="none" stroke="#d88556" stroke-width="2" d="M401.5,-684C401.5,-684 327.5,-684 327.5,-684 321.5,-684 315.5,-678 315.5,-672 315.5,-672 315.5,-660 315.5,-660 315.5,-654 321.5,-648 327.5,-648 327.5,-648 401.5,-648 401.5,-648 407.5,-648 413.5,-654 413.5,-660 413.5,-660 413.5,-672 413.5,-672 413.5,-678 407.5,-684 401.5,-684"/>
<text text-anchor="middle" x="364.5" y="-663.5" font-family="sans" font-size="10.00" fill="#000000">makeSampleFile</text>
</g>
<!-- 14&#45;&gt;11 -->
<g id="edge12" class="edge">
<title>14&#45;&gt;11</title>
<path fill="none" stroke="#c0c0c0" stroke-width="2" d="M334.976,-647.8314C320.0109,-638.6221 301.6614,-627.3301 285.6397,-617.4706"/>
<polygon fill="#c0c0c0" stroke="#c0c0c0" stroke-width="2" points="287.3655,-614.423 277.0146,-612.1628 283.6968,-620.3847 287.3655,-614.423"/>
</g>
<!-- 15 -->
<g id="node16" class="node">
<title>15</title>
<path fill="none" stroke="#56d8a9" stroke-width="2" d="M429,-756C429,-756 300,-756 300,-756 294,-756 288,-750 288,-744 288,-744 288,-732 288,-732 288,-726 294,-720 300,-720 300,-720 429,-720 429,-720 435,-720 441,-726 441,-732 441,-732 441,-744 441,-744 441,-750 435,-756 429,-756"/>
<text text-anchor="middle" x="364.5" y="-735.5" font-family="sans" font-size="10.00" fill="#000000">download_100g_sampleInfo</text>
</g>
<!-- 15&#45;&gt;14 -->
<g id="edge15" class="edge">
<title>15&#45;&gt;14</title>
<path fill="none" stroke="#c0c0c0" stroke-width="2" d="M364.5,-719.8314C364.5,-712.131 364.5,-702.9743 364.5,-694.4166"/>
<polygon fill="#c0c0c0" stroke="#c0c0c0" stroke-width="2" points="368.0001,-694.4132 364.5,-684.4133 361.0001,-694.4133 368.0001,-694.4132"/>
</g>
</g>
</svg>
