<?xml version="1.0" encoding="UTF-8" standalone="no"?>
<!DOCTYPE svg PUBLIC "-//W3C//DTD SVG 1.1//EN"
 "http://www.w3.org/Graphics/SVG/1.1/DTD/svg11.dtd">
<!-- Generated by graphviz version 2.40.1 (20161225.0304)
 -->
<!-- Title: snakemake_dag Pages: 1 -->
<svg width="475pt" height="764pt"
 viewBox="0.00 0.00 474.50 764.00" xmlns="http://www.w3.org/2000/svg" xmlns:xlink="http://www.w3.org/1999/xlink">
<g id="graph0" class="graph" transform="scale(1 1) rotate(0) translate(4 760)">
<title>snakemake_dag</title>
<polygon fill="#ffffff" stroke="transparent" points="-4,4 -4,-760 470.5,-760 470.5,4 -4,4"/>
<!-- 0 -->
<g id="node1" class="node">
<title>0</title>
<path fill="none" stroke="#56d8a9" stroke-width="2" d="M142.5,-36C142.5,-36 112.5,-36 112.5,-36 106.5,-36 100.5,-30 100.5,-24 100.5,-24 100.5,-12 100.5,-12 100.5,-6 106.5,0 112.5,0 112.5,0 142.5,0 142.5,0 148.5,0 154.5,-6 154.5,-12 154.5,-12 154.5,-24 154.5,-24 154.5,-30 148.5,-36 142.5,-36"/>
<text text-anchor="middle" x="127.5" y="-15.5" font-family="sans" font-size="10.00" fill="#000000">final</text>
</g>
<!-- 1 -->
<g id="node2" class="node">
<title>1</title>
<path fill="none" stroke="#56a9d8" stroke-width="2" d="M184.5,-108C184.5,-108 70.5,-108 70.5,-108 64.5,-108 58.5,-102 58.5,-96 58.5,-96 58.5,-84 58.5,-84 58.5,-78 64.5,-72 70.5,-72 70.5,-72 184.5,-72 184.5,-72 190.5,-72 196.5,-78 196.5,-84 196.5,-84 196.5,-96 196.5,-96 196.5,-102 190.5,-108 184.5,-108"/>
<text text-anchor="middle" x="127.5" y="-87.5" font-family="sans" font-size="10.00" fill="#000000">GREGOR_plotEnrichment</text>
</g>
<!-- 1&#45;&gt;0 -->
<g id="edge1" class="edge">
<title>1&#45;&gt;0</title>
<path fill="none" stroke="#c0c0c0" stroke-width="2" d="M127.5,-71.8314C127.5,-64.131 127.5,-54.9743 127.5,-46.4166"/>
<polygon fill="#c0c0c0" stroke="#c0c0c0" stroke-width="2" points="131.0001,-46.4132 127.5,-36.4133 124.0001,-46.4133 131.0001,-46.4132"/>
</g>
<!-- 2 -->
<g id="node3" class="node">
<title>2</title>
<path fill="none" stroke="#56d8d0" stroke-width="2" d="M183.5,-180C183.5,-180 71.5,-180 71.5,-180 65.5,-180 59.5,-174 59.5,-168 59.5,-168 59.5,-156 59.5,-156 59.5,-150 65.5,-144 71.5,-144 71.5,-144 183.5,-144 183.5,-144 189.5,-144 195.5,-150 195.5,-156 195.5,-156 195.5,-168 195.5,-168 195.5,-174 189.5,-180 183.5,-180"/>
<text text-anchor="middle" x="127.5" y="-159.5" font-family="sans" font-size="10.00" fill="#000000">GREGOR_assembleStats</text>
</g>
<!-- 2&#45;&gt;1 -->
<g id="edge2" class="edge">
<title>2&#45;&gt;1</title>
<path fill="none" stroke="#c0c0c0" stroke-width="2" d="M127.5,-143.8314C127.5,-136.131 127.5,-126.9743 127.5,-118.4166"/>
<polygon fill="#c0c0c0" stroke="#c0c0c0" stroke-width="2" points="131.0001,-118.4132 127.5,-108.4133 124.0001,-118.4133 131.0001,-118.4132"/>
</g>
<!-- 3 -->
<g id="node4" class="node">
<title>3</title>
<path fill="none" stroke="#68d856" stroke-width="2" d="M152.5,-252C152.5,-252 102.5,-252 102.5,-252 96.5,-252 90.5,-246 90.5,-240 90.5,-240 90.5,-228 90.5,-228 90.5,-222 96.5,-216 102.5,-216 102.5,-216 152.5,-216 152.5,-216 158.5,-216 164.5,-222 164.5,-228 164.5,-228 164.5,-240 164.5,-240 164.5,-246 158.5,-252 152.5,-252"/>
<text text-anchor="middle" x="127.5" y="-231.5" font-family="sans" font-size="10.00" fill="#000000">runGREGOR</text>
</g>
<!-- 3&#45;&gt;2 -->
<g id="edge3" class="edge">
<title>3&#45;&gt;2</title>
<path fill="none" stroke="#c0c0c0" stroke-width="2" d="M127.5,-215.8314C127.5,-208.131 127.5,-198.9743 127.5,-190.4166"/>
<polygon fill="#c0c0c0" stroke="#c0c0c0" stroke-width="2" points="131.0001,-190.4132 127.5,-180.4133 124.0001,-190.4133 131.0001,-190.4132"/>
</g>
<!-- 4 -->
<g id="node5" class="node">
<title>4</title>
<path fill="none" stroke="#567bd8" stroke-width="2" d="M158.5,-324C158.5,-324 96.5,-324 96.5,-324 90.5,-324 84.5,-318 84.5,-312 84.5,-312 84.5,-300 84.5,-300 84.5,-294 90.5,-288 96.5,-288 96.5,-288 158.5,-288 158.5,-288 164.5,-288 170.5,-294 170.5,-300 170.5,-300 170.5,-312 170.5,-312 170.5,-318 164.5,-324 158.5,-324"/>
<text text-anchor="middle" x="127.5" y="-303.5" font-family="sans" font-size="10.00" fill="#000000">setupGREGOR</text>
</g>
<!-- 4&#45;&gt;3 -->
<g id="edge4" class="edge">
<title>4&#45;&gt;3</title>
<path fill="none" stroke="#c0c0c0" stroke-width="2" d="M127.5,-287.8314C127.5,-280.131 127.5,-270.9743 127.5,-262.4166"/>
<polygon fill="#c0c0c0" stroke="#c0c0c0" stroke-width="2" points="131.0001,-262.4132 127.5,-252.4133 124.0001,-262.4133 131.0001,-262.4132"/>
</g>
<!-- 5 -->
<g id="node6" class="node">
<title>5</title>
<path fill="none" stroke="#b6d856" stroke-width="2" d="M94.5,-396C94.5,-396 32.5,-396 32.5,-396 26.5,-396 20.5,-390 20.5,-384 20.5,-384 20.5,-372 20.5,-372 20.5,-366 26.5,-360 32.5,-360 32.5,-360 94.5,-360 94.5,-360 100.5,-360 106.5,-366 106.5,-372 106.5,-372 106.5,-384 106.5,-384 106.5,-390 100.5,-396 94.5,-396"/>
<text text-anchor="middle" x="63.5" y="-375.5" font-family="sans" font-size="10.00" fill="#000000">makeBedFiles</text>
</g>
<!-- 5&#45;&gt;4 -->
<g id="edge5" class="edge">
<title>5&#45;&gt;4</title>
<path fill="none" stroke="#c0c0c0" stroke-width="2" d="M79.6499,-359.8314C87.1717,-351.3694 96.2565,-341.1489 104.4804,-331.8971"/>
<polygon fill="#c0c0c0" stroke="#c0c0c0" stroke-width="2" points="107.1049,-334.2127 111.1327,-324.4133 101.873,-329.5621 107.1049,-334.2127"/>
</g>
<!-- 6 -->
<g id="node7" class="node">
<title>6</title>
<path fill="none" stroke="#a7d856" stroke-width="2" d="M248.5,-396C248.5,-396 136.5,-396 136.5,-396 130.5,-396 124.5,-390 124.5,-384 124.5,-384 124.5,-372 124.5,-372 124.5,-366 130.5,-360 136.5,-360 136.5,-360 248.5,-360 248.5,-360 254.5,-360 260.5,-366 260.5,-372 260.5,-372 260.5,-384 260.5,-384 260.5,-390 254.5,-396 248.5,-396"/>
<text text-anchor="middle" x="192.5" y="-375.5" font-family="sans" font-size="10.00" fill="#000000">organize_pruned_results</text>
</g>
<!-- 6&#45;&gt;4 -->
<g id="edge6" class="edge">
<title>6&#45;&gt;4</title>
<path fill="none" stroke="#c0c0c0" stroke-width="2" d="M176.0978,-359.8314C168.4585,-351.3694 159.2317,-341.1489 150.8793,-331.8971"/>
<polygon fill="#c0c0c0" stroke="#c0c0c0" stroke-width="2" points="153.4221,-329.4906 144.1231,-324.4133 148.2262,-334.1813 153.4221,-329.4906"/>
</g>
<!-- 7 -->
<g id="node8" class="node">
<title>7</title>
<path fill="none" stroke="#ced856" stroke-width="2" d="M115,-468C115,-468 12,-468 12,-468 6,-468 0,-462 0,-456 0,-456 0,-444 0,-444 0,-438 6,-432 12,-432 12,-432 115,-432 115,-432 121,-432 127,-438 127,-444 127,-444 127,-456 127,-456 127,-462 121,-468 115,-468"/>
<text text-anchor="middle" x="63.5" y="-447.5" font-family="sans" font-size="10.00" fill="#000000">download_annotations</text>
</g>
<!-- 7&#45;&gt;5 -->
<g id="edge7" class="edge">
<title>7&#45;&gt;5</title>
<path fill="none" stroke="#c0c0c0" stroke-width="2" d="M63.5,-431.8314C63.5,-424.131 63.5,-414.9743 63.5,-406.4166"/>
<polygon fill="#c0c0c0" stroke="#c0c0c0" stroke-width="2" points="67.0001,-406.4132 63.5,-396.4133 60.0001,-406.4133 67.0001,-406.4132"/>
</g>
<!-- 8 -->
<g id="node9" class="node">
<title>8</title>
<path fill="none" stroke="#566bd8" stroke-width="2" d="M217.5,-468C217.5,-468 167.5,-468 167.5,-468 161.5,-468 155.5,-462 155.5,-456 155.5,-456 155.5,-444 155.5,-444 155.5,-438 161.5,-432 167.5,-432 167.5,-432 217.5,-432 217.5,-432 223.5,-432 229.5,-438 229.5,-444 229.5,-444 229.5,-456 229.5,-456 229.5,-462 223.5,-468 217.5,-468"/>
<text text-anchor="middle" x="192.5" y="-447.5" font-family="sans" font-size="10.00" fill="#000000">prune_plink</text>
</g>
<!-- 8&#45;&gt;6 -->
<g id="edge8" class="edge">
<title>8&#45;&gt;6</title>
<path fill="none" stroke="#c0c0c0" stroke-width="2" d="M192.5,-431.8314C192.5,-424.131 192.5,-414.9743 192.5,-406.4166"/>
<polygon fill="#c0c0c0" stroke="#c0c0c0" stroke-width="2" points="196.0001,-406.4132 192.5,-396.4133 189.0001,-406.4133 196.0001,-406.4132"/>
</g>
<!-- 9 -->
<g id="node10" class="node">
<title>9</title>
<path fill="none" stroke="#56d8b9" stroke-width="2" d="M173.5,-540C173.5,-540 101.5,-540 101.5,-540 95.5,-540 89.5,-534 89.5,-528 89.5,-528 89.5,-516 89.5,-516 89.5,-510 95.5,-504 101.5,-504 101.5,-504 173.5,-504 173.5,-504 179.5,-504 185.5,-510 185.5,-516 185.5,-516 185.5,-528 185.5,-528 185.5,-534 179.5,-540 173.5,-540"/>
<text text-anchor="middle" x="137.5" y="-519.5" font-family="sans" font-size="10.00" fill="#000000">make_trait_files</text>
</g>
<!-- 9&#45;&gt;8 -->
<g id="edge9" class="edge">
<title>9&#45;&gt;8</title>
<path fill="none" stroke="#c0c0c0" stroke-width="2" d="M151.3788,-503.8314C157.7136,-495.5386 165.3384,-485.557 172.2926,-476.4533"/>
<polygon fill="#c0c0c0" stroke="#c0c0c0" stroke-width="2" points="175.1452,-478.4847 178.4343,-468.4133 169.5825,-474.2353 175.1452,-478.4847"/>
</g>
<!-- 10 -->
<g id="node11" class="node">
<title>10</title>
<path fill="none" stroke="#56d892" stroke-width="2" d="M279.5,-540C279.5,-540 215.5,-540 215.5,-540 209.5,-540 203.5,-534 203.5,-528 203.5,-528 203.5,-516 203.5,-516 203.5,-510 209.5,-504 215.5,-504 215.5,-504 279.5,-504 279.5,-504 285.5,-504 291.5,-510 291.5,-516 291.5,-516 291.5,-528 291.5,-528 291.5,-534 285.5,-540 279.5,-540"/>
<text text-anchor="middle" x="247.5" y="-519.5" font-family="sans" font-size="10.00" fill="#000000">get_plink_files</text>
</g>
<!-- 10&#45;&gt;8 -->
<g id="edge10" class="edge">
<title>10&#45;&gt;8</title>
<path fill="none" stroke="#c0c0c0" stroke-width="2" d="M233.6212,-503.8314C227.2864,-495.5386 219.6616,-485.557 212.7074,-476.4533"/>
<polygon fill="#c0c0c0" stroke="#c0c0c0" stroke-width="2" points="215.4175,-474.2353 206.5657,-468.4133 209.8548,-478.4847 215.4175,-474.2353"/>
</g>
<!-- 11 -->
<g id="node12" class="node">
<title>11</title>
<path fill="none" stroke="#80d856" stroke-width="2" d="M269.5,-612C269.5,-612 225.5,-612 225.5,-612 219.5,-612 213.5,-606 213.5,-600 213.5,-600 213.5,-588 213.5,-588 213.5,-582 219.5,-576 225.5,-576 225.5,-576 269.5,-576 269.5,-576 275.5,-576 281.5,-582 281.5,-588 281.5,-588 281.5,-600 281.5,-600 281.5,-606 275.5,-612 269.5,-612"/>
<text text-anchor="middle" x="247.5" y="-591.5" font-family="sans" font-size="10.00" fill="#000000">subsetVCF</text>
</g>
<!-- 11&#45;&gt;10 -->
<g id="edge11" class="edge">
<title>11&#45;&gt;10</title>
<path fill="none" stroke="#c0c0c0" stroke-width="2" d="M247.5,-575.8314C247.5,-568.131 247.5,-558.9743 247.5,-550.4166"/>
<polygon fill="#c0c0c0" stroke="#c0c0c0" stroke-width="2" points="251.0001,-550.4132 247.5,-540.4133 244.0001,-550.4133 251.0001,-550.4132"/>
</g>
<!-- 12 -->
<g id="node13" class="node">
<title>12</title>
<path fill="none" stroke="#d8a456" stroke-width="2" d="M168,-684C168,-684 93,-684 93,-684 87,-684 81,-678 81,-672 81,-672 81,-660 81,-660 81,-654 87,-648 93,-648 93,-648 168,-648 168,-648 174,-648 180,-654 180,-660 180,-660 180,-672 180,-672 180,-678 174,-684 168,-684"/>
<text text-anchor="middle" x="130.5" y="-663.5" font-family="sans" font-size="10.00" fill="#000000">download_1000g</text>
</g>
<!-- 12&#45;&gt;11 -->
<g id="edge13" class="edge">
<title>12&#45;&gt;11</title>
<path fill="none" stroke="#c0c0c0" stroke-width="2" d="M160.024,-647.8314C174.9891,-638.6221 193.3386,-627.3301 209.3603,-617.4706"/>
<polygon fill="#c0c0c0" stroke="#c0c0c0" stroke-width="2" points="211.3032,-620.3847 217.9854,-612.1628 207.6345,-614.423 211.3032,-620.3847"/>
</g>
<!-- 13 -->
<g id="node14" class="node">
<title>13</title>
<path fill="none" stroke="#d85656" stroke-width="2" d="M284.5,-684C284.5,-684 210.5,-684 210.5,-684 204.5,-684 198.5,-678 198.5,-672 198.5,-672 198.5,-660 198.5,-660 198.5,-654 204.5,-648 210.5,-648 210.5,-648 284.5,-648 284.5,-648 290.5,-648 296.5,-654 296.5,-660 296.5,-660 296.5,-672 296.5,-672 296.5,-678 290.5,-684 284.5,-684"/>
<text text-anchor="middle" x="247.5" y="-663.5" font-family="sans" font-size="10.00" fill="#000000">makeSampleFile</text>
</g>
<!-- 13&#45;&gt;11 -->
<g id="edge12" class="edge">
<title>13&#45;&gt;11</title>
<path fill="none" stroke="#c0c0c0" stroke-width="2" d="M247.5,-647.8314C247.5,-640.131 247.5,-630.9743 247.5,-622.4166"/>
<polygon fill="#c0c0c0" stroke="#c0c0c0" stroke-width="2" points="251.0001,-622.4132 247.5,-612.4133 244.0001,-622.4133 251.0001,-622.4132"/>
</g>
<!-- 14 -->
<g id="node15" class="node">
<title>14</title>
<path fill="none" stroke="#d87d56" stroke-width="2" d="M454.5,-684C454.5,-684 326.5,-684 326.5,-684 320.5,-684 314.5,-678 314.5,-672 314.5,-672 314.5,-660 314.5,-660 314.5,-654 320.5,-648 326.5,-648 326.5,-648 454.5,-648 454.5,-648 460.5,-648 466.5,-654 466.5,-660 466.5,-660 466.5,-672 466.5,-672 466.5,-678 460.5,-684 454.5,-684"/>
<text text-anchor="middle" x="390.5" y="-663.5" font-family="sans" font-size="10.00" fill="#000000">makeFullSnpList_forPruning</text>
</g>
<!-- 14&#45;&gt;11 -->
<g id="edge14" class="edge">
<title>14&#45;&gt;11</title>
<path fill="none" stroke="#c0c0c0" stroke-width="2" d="M354.4151,-647.8314C335.0424,-638.0773 311.0292,-625.9867 290.6711,-615.7365"/>
<polygon fill="#c0c0c0" stroke="#c0c0c0" stroke-width="2" points="292.1102,-612.5425 281.6044,-611.1715 288.9622,-618.7947 292.1102,-612.5425"/>
</g>
<!-- 15 -->
<g id="node16" class="node">
<title>15</title>
<path fill="none" stroke="#d8cb56" stroke-width="2" d="M312,-756C312,-756 183,-756 183,-756 177,-756 171,-750 171,-744 171,-744 171,-732 171,-732 171,-726 177,-720 183,-720 183,-720 312,-720 312,-720 318,-720 324,-726 324,-732 324,-732 324,-744 324,-744 324,-750 318,-756 312,-756"/>
<text text-anchor="middle" x="247.5" y="-735.5" font-family="sans" font-size="10.00" fill="#000000">download_100g_sampleInfo</text>
</g>
<!-- 15&#45;&gt;13 -->
<g id="edge15" class="edge">
<title>15&#45;&gt;13</title>
<path fill="none" stroke="#c0c0c0" stroke-width="2" d="M247.5,-719.8314C247.5,-712.131 247.5,-702.9743 247.5,-694.4166"/>
<polygon fill="#c0c0c0" stroke="#c0c0c0" stroke-width="2" points="251.0001,-694.4132 247.5,-684.4133 244.0001,-694.4133 251.0001,-694.4132"/>
</g>
<!-- 16 -->
<g id="node17" class="node">
<title>16</title>
<path fill="none" stroke="#8fd856" stroke-width="2" d="M425,-756C425,-756 356,-756 356,-756 350,-756 344,-750 344,-744 344,-744 344,-732 344,-732 344,-726 350,-720 356,-720 356,-720 425,-720 425,-720 431,-720 437,-726 437,-732 437,-732 437,-744 437,-744 437,-750 431,-756 425,-756"/>
<text text-anchor="middle" x="390.5" y="-735.5" font-family="sans" font-size="10.00" fill="#000000">get_nhgri_gwas</text>
</g>
<!-- 16&#45;&gt;14 -->
<g id="edge16" class="edge">
<title>16&#45;&gt;14</title>
<path fill="none" stroke="#c0c0c0" stroke-width="2" d="M390.5,-719.8314C390.5,-712.131 390.5,-702.9743 390.5,-694.4166"/>
<polygon fill="#c0c0c0" stroke="#c0c0c0" stroke-width="2" points="394.0001,-694.4132 390.5,-684.4133 387.0001,-694.4133 394.0001,-694.4132"/>
</g>
</g>
</svg>
