<?xml version="1.0" encoding="UTF-8" standalone="no"?>
<!DOCTYPE svg PUBLIC "-//W3C//DTD SVG 1.1//EN"
 "http://www.w3.org/Graphics/SVG/1.1/DTD/svg11.dtd">
<!-- Generated by graphviz version 2.40.1 (20161225.0304)
 -->
<!-- Title: snakemake_dag Pages: 1 -->
<svg width="474pt" height="908pt"
 viewBox="0.00 0.00 473.50 908.00" xmlns="http://www.w3.org/2000/svg" xmlns:xlink="http://www.w3.org/1999/xlink">
<g id="graph0" class="graph" transform="scale(1 1) rotate(0) translate(4 904)">
<title>snakemake_dag</title>
<polygon fill="#ffffff" stroke="transparent" points="-4,4 -4,-904 469.5,-904 469.5,4 -4,4"/>
<!-- 0 -->
<g id="node1" class="node">
<title>0</title>
<path fill="none" stroke="#78d856" stroke-width="2" d="M306.5,-36C306.5,-36 276.5,-36 276.5,-36 270.5,-36 264.5,-30 264.5,-24 264.5,-24 264.5,-12 264.5,-12 264.5,-6 270.5,0 276.5,0 276.5,0 306.5,0 306.5,0 312.5,0 318.5,-6 318.5,-12 318.5,-12 318.5,-24 318.5,-24 318.5,-30 312.5,-36 306.5,-36"/>
<text text-anchor="middle" x="291.5" y="-15.5" font-family="sans" font-size="10.00" fill="#000000">final</text>
</g>
<!-- 1 -->
<g id="node2" class="node">
<title>1</title>
<path fill="none" stroke="#c6d856" stroke-width="2" d="M347,-108C347,-108 300,-108 300,-108 294,-108 288,-102 288,-96 288,-96 288,-84 288,-84 288,-78 294,-72 300,-72 300,-72 347,-72 347,-72 353,-72 359,-78 359,-84 359,-84 359,-96 359,-96 359,-102 353,-108 347,-108"/>
<text text-anchor="middle" x="323.5" y="-87.5" font-family="sans" font-size="10.00" fill="#000000">plot_power</text>
</g>
<!-- 1&#45;&gt;0 -->
<g id="edge2" class="edge">
<title>1&#45;&gt;0</title>
<path fill="none" stroke="#c0c0c0" stroke-width="2" d="M315.425,-71.8314C311.8898,-63.8771 307.664,-54.369 303.7544,-45.5723"/>
<polygon fill="#c0c0c0" stroke="#c0c0c0" stroke-width="2" points="306.9435,-44.1299 299.6837,-36.4133 300.5468,-46.9729 306.9435,-44.1299"/>
</g>
<!-- 2 -->
<g id="node3" class="node">
<title>2</title>
<path fill="none" stroke="#68d856" stroke-width="2" d="M453.5,-756C453.5,-756 381.5,-756 381.5,-756 375.5,-756 369.5,-750 369.5,-744 369.5,-744 369.5,-732 369.5,-732 369.5,-726 375.5,-720 381.5,-720 381.5,-720 453.5,-720 453.5,-720 459.5,-720 465.5,-726 465.5,-732 465.5,-732 465.5,-744 465.5,-744 465.5,-750 459.5,-756 453.5,-756"/>
<text text-anchor="middle" x="417.5" y="-735.5" font-family="sans" font-size="10.00" fill="#000000">plotEffectVsMAF</text>
</g>
<!-- 2&#45;&gt;0 -->
<g id="edge1" class="edge">
<title>2&#45;&gt;0</title>
<path fill="none" stroke="#c0c0c0" stroke-width="2" d="M417.5,-719.8146C417.5,-692.4983 417.5,-639.25 417.5,-594 417.5,-594 417.5,-594 417.5,-162 417.5,-106.7971 364.4071,-62.5845 327.1499,-38.3549"/>
<polygon fill="#c0c0c0" stroke="#c0c0c0" stroke-width="2" points="328.8554,-35.2926 318.5302,-32.9175 325.1206,-41.213 328.8554,-35.2926"/>
</g>
<!-- 3 -->
<g id="node4" class="node">
<title>3</title>
<path fill="none" stroke="#8fd856" stroke-width="2" d="M211.5,-108C211.5,-108 181.5,-108 181.5,-108 175.5,-108 169.5,-102 169.5,-96 169.5,-96 169.5,-84 169.5,-84 169.5,-78 175.5,-72 181.5,-72 181.5,-72 211.5,-72 211.5,-72 217.5,-72 223.5,-78 223.5,-84 223.5,-84 223.5,-96 223.5,-96 223.5,-102 217.5,-108 211.5,-108"/>
<text text-anchor="middle" x="196.5" y="-87.5" font-family="sans" font-size="10.00" fill="#000000">regress</text>
</g>
<!-- 3&#45;&gt;0 -->
<g id="edge3" class="edge">
<title>3&#45;&gt;0</title>
<path fill="none" stroke="#c0c0c0" stroke-width="2" d="M220.4725,-71.8314C232.2861,-62.8779 246.6972,-51.9558 259.4435,-42.2955"/>
<polygon fill="#c0c0c0" stroke="#c0c0c0" stroke-width="2" points="261.6795,-44.9925 267.5352,-36.1628 257.4514,-39.4137 261.6795,-44.9925"/>
</g>
<!-- 4 -->
<g id="node5" class="node">
<title>4</title>
<path fill="none" stroke="#56d86b" stroke-width="2" d="M258.5,-180C258.5,-180 228.5,-180 228.5,-180 222.5,-180 216.5,-174 216.5,-168 216.5,-168 216.5,-156 216.5,-156 216.5,-150 222.5,-144 228.5,-144 228.5,-144 258.5,-144 258.5,-144 264.5,-144 270.5,-150 270.5,-156 270.5,-156 270.5,-168 270.5,-168 270.5,-174 264.5,-180 258.5,-180"/>
<text text-anchor="middle" x="243.5" y="-159.5" font-family="sans" font-size="10.00" fill="#000000">plot</text>
</g>
<!-- 4&#45;&gt;0 -->
<g id="edge4" class="edge">
<title>4&#45;&gt;0</title>
<path fill="none" stroke="#c0c0c0" stroke-width="2" d="M249.5792,-143.7623C257.8385,-118.9846 272.6762,-74.4714 282.302,-45.5939"/>
<polygon fill="#c0c0c0" stroke="#c0c0c0" stroke-width="2" points="285.6282,-46.6833 285.4701,-36.0896 278.9874,-44.4696 285.6282,-46.6833"/>
</g>
<!-- 5 -->
<g id="node6" class="node">
<title>5</title>
<path fill="none" stroke="#568ad8" stroke-width="2" d="M376.5,-180C376.5,-180 300.5,-180 300.5,-180 294.5,-180 288.5,-174 288.5,-168 288.5,-168 288.5,-156 288.5,-156 288.5,-150 294.5,-144 300.5,-144 300.5,-144 376.5,-144 376.5,-144 382.5,-144 388.5,-150 388.5,-156 388.5,-156 388.5,-168 388.5,-168 388.5,-174 382.5,-180 376.5,-180"/>
<text text-anchor="middle" x="338.5" y="-159.5" font-family="sans" font-size="10.00" fill="#000000">setup_powerCalc</text>
</g>
<!-- 5&#45;&gt;1 -->
<g id="edge5" class="edge">
<title>5&#45;&gt;1</title>
<path fill="none" stroke="#c0c0c0" stroke-width="2" d="M334.7149,-143.8314C333.1106,-136.131 331.203,-126.9743 329.4201,-118.4166"/>
<polygon fill="#c0c0c0" stroke="#c0c0c0" stroke-width="2" points="332.8021,-117.4892 327.3361,-108.4133 325.9493,-118.9169 332.8021,-117.4892"/>
</g>
<!-- 6 -->
<g id="node7" class="node">
<title>6</title>
<path fill="none" stroke="#d87d56" stroke-width="2" d="M402.5,-900C402.5,-900 340.5,-900 340.5,-900 334.5,-900 328.5,-894 328.5,-888 328.5,-888 328.5,-876 328.5,-876 328.5,-870 334.5,-864 340.5,-864 340.5,-864 402.5,-864 402.5,-864 408.5,-864 414.5,-870 414.5,-876 414.5,-876 414.5,-888 414.5,-888 414.5,-894 408.5,-900 402.5,-900"/>
<text text-anchor="middle" x="371.5" y="-879.5" font-family="sans" font-size="10.00" fill="#000000">formatEqtlFile</text>
</g>
<!-- 6&#45;&gt;2 -->
<g id="edge6" class="edge">
<title>6&#45;&gt;2</title>
<path fill="none" stroke="#c0c0c0" stroke-width="2" d="M382.216,-863.5222C387.7479,-853.3239 394.2165,-840.271 398.5,-828 405.5394,-807.8343 410.4095,-784.1733 413.4556,-766.1738"/>
<polygon fill="#c0c0c0" stroke="#c0c0c0" stroke-width="2" points="416.9114,-766.7279 415.0409,-756.2995 409.9999,-765.6182 416.9114,-766.7279"/>
</g>
<!-- 16 -->
<g id="node17" class="node">
<title>16</title>
<path fill="none" stroke="#9fd856" stroke-width="2" d="M377.5,-828C377.5,-828 273.5,-828 273.5,-828 267.5,-828 261.5,-822 261.5,-816 261.5,-816 261.5,-804 261.5,-804 261.5,-798 267.5,-792 273.5,-792 273.5,-792 377.5,-792 377.5,-792 383.5,-792 389.5,-798 389.5,-804 389.5,-804 389.5,-816 389.5,-816 389.5,-822 383.5,-828 377.5,-828"/>
<text text-anchor="middle" x="325.5" y="-807.5" font-family="sans" font-size="10.00" fill="#000000">setup_eqtl_for_pruning</text>
</g>
<!-- 6&#45;&gt;16 -->
<g id="edge24" class="edge">
<title>6&#45;&gt;16</title>
<path fill="none" stroke="#c0c0c0" stroke-width="2" d="M359.8923,-863.8314C354.7022,-855.7079 348.4768,-845.9637 342.7575,-837.0118"/>
<polygon fill="#c0c0c0" stroke="#c0c0c0" stroke-width="2" points="345.5974,-834.9559 337.264,-828.4133 339.6985,-838.7246 345.5974,-834.9559"/>
</g>
<!-- 7 -->
<g id="node8" class="node">
<title>7</title>
<path fill="none" stroke="#566bd8" stroke-width="2" d="M289.5,-252C289.5,-252 195.5,-252 195.5,-252 189.5,-252 183.5,-246 183.5,-240 183.5,-240 183.5,-228 183.5,-228 183.5,-222 189.5,-216 195.5,-216 195.5,-216 289.5,-216 289.5,-216 295.5,-216 301.5,-222 301.5,-228 301.5,-228 301.5,-240 301.5,-240 301.5,-246 295.5,-252 289.5,-252"/>
<text text-anchor="middle" x="242.5" y="-231.5" font-family="sans" font-size="10.00" fill="#000000">intersectAnnotations</text>
</g>
<!-- 7&#45;&gt;3 -->
<g id="edge7" class="edge">
<title>7&#45;&gt;3</title>
<path fill="none" stroke="#c0c0c0" stroke-width="2" d="M227.5946,-215.6332C220.3194,-205.6758 212.1524,-192.8112 207.5,-180 200.3023,-160.1799 197.6253,-136.4594 196.7088,-118.3472"/>
<polygon fill="#c0c0c0" stroke="#c0c0c0" stroke-width="2" points="200.1992,-118.0113 196.3462,-108.1419 193.2036,-118.2599 200.1992,-118.0113"/>
</g>
<!-- 7&#45;&gt;4 -->
<g id="edge8" class="edge">
<title>7&#45;&gt;4</title>
<path fill="none" stroke="#c0c0c0" stroke-width="2" d="M242.7523,-215.8314C242.8593,-208.131 242.9865,-198.9743 243.1053,-190.4166"/>
<polygon fill="#c0c0c0" stroke="#c0c0c0" stroke-width="2" points="246.6049,-190.4609 243.2443,-180.4133 239.6056,-190.3637 246.6049,-190.4609"/>
</g>
<!-- 7&#45;&gt;5 -->
<g id="edge9" class="edge">
<title>7&#45;&gt;5</title>
<path fill="none" stroke="#c0c0c0" stroke-width="2" d="M266.7249,-215.8314C278.6628,-206.8779 293.2256,-195.9558 306.106,-186.2955"/>
<polygon fill="#c0c0c0" stroke="#c0c0c0" stroke-width="2" points="308.3829,-188.9629 314.2829,-180.1628 304.1829,-183.3629 308.3829,-188.9629"/>
</g>
<!-- 8 -->
<g id="node9" class="node">
<title>8</title>
<path fill="none" stroke="#b6d856" stroke-width="2" d="M200,-324C200,-324 97,-324 97,-324 91,-324 85,-318 85,-312 85,-312 85,-300 85,-300 85,-294 91,-288 97,-288 97,-288 200,-288 200,-288 206,-288 212,-294 212,-300 212,-300 212,-312 212,-312 212,-318 206,-324 200,-324"/>
<text text-anchor="middle" x="148.5" y="-303.5" font-family="sans" font-size="10.00" fill="#000000">download_annotations</text>
</g>
<!-- 8&#45;&gt;7 -->
<g id="edge12" class="edge">
<title>8&#45;&gt;7</title>
<path fill="none" stroke="#c0c0c0" stroke-width="2" d="M172.2202,-287.8314C183.9094,-278.8779 198.1688,-267.9558 210.7809,-258.2955"/>
<polygon fill="#c0c0c0" stroke="#c0c0c0" stroke-width="2" points="212.9769,-261.0222 218.7874,-252.1628 208.7203,-255.4651 212.9769,-261.0222"/>
</g>
<!-- 9 -->
<g id="node10" class="node">
<title>9</title>
<path fill="none" stroke="#56a2d8" stroke-width="2" d="M283,-396C283,-396 198,-396 198,-396 192,-396 186,-390 186,-384 186,-384 186,-372 186,-372 186,-366 192,-360 198,-360 198,-360 283,-360 283,-360 289,-360 295,-366 295,-372 295,-372 295,-384 295,-384 295,-390 289,-396 283,-396"/>
<text text-anchor="middle" x="240.5" y="-375.5" font-family="sans" font-size="10.00" fill="#000000">mergeWithOriginal</text>
</g>
<!-- 9&#45;&gt;7 -->
<g id="edge10" class="edge">
<title>9&#45;&gt;7</title>
<path fill="none" stroke="#c0c0c0" stroke-width="2" d="M240.7533,-359.7623C241.0944,-335.201 241.7049,-291.2474 242.1062,-262.3541"/>
<polygon fill="#c0c0c0" stroke="#c0c0c0" stroke-width="2" points="245.6094,-262.1373 242.2488,-252.0896 238.6101,-262.04 245.6094,-262.1373"/>
</g>
<!-- 10 -->
<g id="node11" class="node">
<title>10</title>
<path fill="none" stroke="#56d8d8" stroke-width="2" d="M352.5,-324C352.5,-324 280.5,-324 280.5,-324 274.5,-324 268.5,-318 268.5,-312 268.5,-312 268.5,-300 268.5,-300 268.5,-294 274.5,-288 280.5,-288 280.5,-288 352.5,-288 352.5,-288 358.5,-288 364.5,-294 364.5,-300 364.5,-300 364.5,-312 364.5,-312 364.5,-318 358.5,-324 352.5,-324"/>
<text text-anchor="middle" x="316.5" y="-303.5" font-family="sans" font-size="10.00" fill="#000000">getHeaderString</text>
</g>
<!-- 9&#45;&gt;10 -->
<g id="edge15" class="edge">
<title>9&#45;&gt;10</title>
<path fill="none" stroke="#c0c0c0" stroke-width="2" d="M259.678,-359.8314C268.8588,-351.1337 280.0006,-340.5783 289.9776,-331.1265"/>
<polygon fill="#c0c0c0" stroke="#c0c0c0" stroke-width="2" points="292.4757,-333.5811 297.3281,-324.1628 287.6615,-328.4995 292.4757,-333.5811"/>
</g>
<!-- 10&#45;&gt;7 -->
<g id="edge11" class="edge">
<title>10&#45;&gt;7</title>
<path fill="none" stroke="#c0c0c0" stroke-width="2" d="M297.8267,-287.8314C288.9751,-279.219 278.2514,-268.7851 268.6105,-259.4048"/>
<polygon fill="#c0c0c0" stroke="#c0c0c0" stroke-width="2" points="270.7754,-256.6279 261.1674,-252.1628 265.8939,-261.645 270.7754,-256.6279"/>
</g>
<!-- 11 -->
<g id="node12" class="node">
<title>11</title>
<path fill="none" stroke="#d8b456" stroke-width="2" d="M188.5,-468C188.5,-468 122.5,-468 122.5,-468 116.5,-468 110.5,-462 110.5,-456 110.5,-456 110.5,-444 110.5,-444 110.5,-438 116.5,-432 122.5,-432 122.5,-432 188.5,-432 188.5,-432 194.5,-432 200.5,-438 200.5,-444 200.5,-444 200.5,-456 200.5,-456 200.5,-462 194.5,-468 188.5,-468"/>
<text text-anchor="middle" x="155.5" y="-447.5" font-family="sans" font-size="10.00" fill="#000000">setup_vcfTools</text>
</g>
<!-- 11&#45;&gt;9 -->
<g id="edge14" class="edge">
<title>11&#45;&gt;9</title>
<path fill="none" stroke="#c0c0c0" stroke-width="2" d="M176.9491,-431.8314C187.3178,-423.0485 199.9229,-412.3712 211.1646,-402.8489"/>
<polygon fill="#c0c0c0" stroke="#c0c0c0" stroke-width="2" points="213.6895,-405.297 219.0578,-396.1628 209.1651,-399.9556 213.6895,-405.297"/>
</g>
<!-- 12 -->
<g id="node13" class="node">
<title>12</title>
<path fill="none" stroke="#d8a456" stroke-width="2" d="M296.5,-540C296.5,-540 184.5,-540 184.5,-540 178.5,-540 172.5,-534 172.5,-528 172.5,-528 172.5,-516 172.5,-516 172.5,-510 178.5,-504 184.5,-504 184.5,-504 296.5,-504 296.5,-504 302.5,-504 308.5,-510 308.5,-516 308.5,-516 308.5,-528 308.5,-528 308.5,-534 302.5,-540 296.5,-540"/>
<text text-anchor="middle" x="240.5" y="-519.5" font-family="sans" font-size="10.00" fill="#000000">organize_pruned_results</text>
</g>
<!-- 12&#45;&gt;9 -->
<g id="edge13" class="edge">
<title>12&#45;&gt;9</title>
<path fill="none" stroke="#c0c0c0" stroke-width="2" d="M240.5,-503.7623C240.5,-479.201 240.5,-435.2474 240.5,-406.3541"/>
<polygon fill="#c0c0c0" stroke="#c0c0c0" stroke-width="2" points="244.0001,-406.0896 240.5,-396.0896 237.0001,-406.0897 244.0001,-406.0896"/>
</g>
<!-- 12&#45;&gt;11 -->
<g id="edge17" class="edge">
<title>12&#45;&gt;11</title>
<path fill="none" stroke="#c0c0c0" stroke-width="2" d="M219.0509,-503.8314C208.6822,-495.0485 196.0771,-484.3712 184.8354,-474.8489"/>
<polygon fill="#c0c0c0" stroke="#c0c0c0" stroke-width="2" points="186.8349,-471.9556 176.9422,-468.1628 182.3105,-477.297 186.8349,-471.9556"/>
</g>
<!-- 13 -->
<g id="node14" class="node">
<title>13</title>
<path fill="none" stroke="#567bd8" stroke-width="2" d="M113.5,-828C113.5,-828 39.5,-828 39.5,-828 33.5,-828 27.5,-822 27.5,-816 27.5,-816 27.5,-804 27.5,-804 27.5,-798 33.5,-792 39.5,-792 39.5,-792 113.5,-792 113.5,-792 119.5,-792 125.5,-798 125.5,-804 125.5,-804 125.5,-816 125.5,-816 125.5,-822 119.5,-828 113.5,-828"/>
<text text-anchor="middle" x="76.5" y="-807.5" font-family="sans" font-size="10.00" fill="#000000">makeSampleFile</text>
</g>
<!-- 13&#45;&gt;11 -->
<g id="edge16" class="edge">
<title>13&#45;&gt;11</title>
<path fill="none" stroke="#c0c0c0" stroke-width="2" d="M79.608,-791.8777C84.0016,-764.6417 91.5,-711.4948 91.5,-666 91.5,-666 91.5,-666 91.5,-594 91.5,-550.0584 116.6932,-504.5709 135.4667,-476.7747"/>
<polygon fill="#c0c0c0" stroke="#c0c0c0" stroke-width="2" points="138.458,-478.6035 141.2963,-468.3959 132.712,-474.6056 138.458,-478.6035"/>
</g>
<!-- 19 -->
<g id="node20" class="node">
<title>19</title>
<path fill="none" stroke="#56d88a" stroke-width="2" d="M232.5,-756C232.5,-756 188.5,-756 188.5,-756 182.5,-756 176.5,-750 176.5,-744 176.5,-744 176.5,-732 176.5,-732 176.5,-726 182.5,-720 188.5,-720 188.5,-720 232.5,-720 232.5,-720 238.5,-720 244.5,-726 244.5,-732 244.5,-732 244.5,-744 244.5,-744 244.5,-750 238.5,-756 232.5,-756"/>
<text text-anchor="middle" x="210.5" y="-735.5" font-family="sans" font-size="10.00" fill="#000000">subsetVCF</text>
</g>
<!-- 13&#45;&gt;19 -->
<g id="edge26" class="edge">
<title>13&#45;&gt;19</title>
<path fill="none" stroke="#c0c0c0" stroke-width="2" d="M110.3139,-791.8314C127.7707,-782.4516 149.2487,-770.9112 167.8352,-760.9244"/>
<polygon fill="#c0c0c0" stroke="#c0c0c0" stroke-width="2" points="169.5446,-763.9792 176.697,-756.1628 166.2314,-757.8129 169.5446,-763.9792"/>
</g>
<!-- 14 -->
<g id="node15" class="node">
<title>14</title>
<path fill="none" stroke="#56d8b1" stroke-width="2" d="M231,-828C231,-828 156,-828 156,-828 150,-828 144,-822 144,-816 144,-816 144,-804 144,-804 144,-798 150,-792 156,-792 156,-792 231,-792 231,-792 237,-792 243,-798 243,-804 243,-804 243,-816 243,-816 243,-822 237,-828 231,-828"/>
<text text-anchor="middle" x="193.5" y="-807.5" font-family="sans" font-size="10.00" fill="#000000">download_1000g</text>
</g>
<!-- 14&#45;&gt;11 -->
<g id="edge18" class="edge">
<title>14&#45;&gt;11</title>
<path fill="none" stroke="#c0c0c0" stroke-width="2" d="M182.6507,-791.611C167.9453,-764.8991 143.5,-713.3709 143.5,-666 143.5,-666 143.5,-666 143.5,-594 143.5,-553.7369 148.2166,-507.3594 151.7358,-478.3596"/>
<polygon fill="#c0c0c0" stroke="#c0c0c0" stroke-width="2" points="155.2452,-478.5021 153.0136,-468.145 148.2993,-477.6332 155.2452,-478.5021"/>
</g>
<!-- 14&#45;&gt;19 -->
<g id="edge27" class="edge">
<title>14&#45;&gt;19</title>
<path fill="none" stroke="#c0c0c0" stroke-width="2" d="M197.7898,-791.8314C199.608,-784.131 201.7699,-774.9743 203.7905,-766.4166"/>
<polygon fill="#c0c0c0" stroke="#c0c0c0" stroke-width="2" points="207.2608,-766.95 206.1524,-756.4133 200.4481,-765.3414 207.2608,-766.95"/>
</g>
<!-- 15 -->
<g id="node16" class="node">
<title>15</title>
<path fill="none" stroke="#d86656" stroke-width="2" d="M265.5,-612C265.5,-612 215.5,-612 215.5,-612 209.5,-612 203.5,-606 203.5,-600 203.5,-600 203.5,-588 203.5,-588 203.5,-582 209.5,-576 215.5,-576 215.5,-576 265.5,-576 265.5,-576 271.5,-576 277.5,-582 277.5,-588 277.5,-588 277.5,-600 277.5,-600 277.5,-606 271.5,-612 265.5,-612"/>
<text text-anchor="middle" x="240.5" y="-591.5" font-family="sans" font-size="10.00" fill="#000000">prune_plink</text>
</g>
<!-- 15&#45;&gt;12 -->
<g id="edge19" class="edge">
<title>15&#45;&gt;12</title>
<path fill="none" stroke="#c0c0c0" stroke-width="2" d="M240.5,-575.8314C240.5,-568.131 240.5,-558.9743 240.5,-550.4166"/>
<polygon fill="#c0c0c0" stroke="#c0c0c0" stroke-width="2" points="244.0001,-550.4132 240.5,-540.4133 237.0001,-550.4133 244.0001,-550.4132"/>
</g>
<!-- 16&#45;&gt;12 -->
<g id="edge20" class="edge">
<title>16&#45;&gt;12</title>
<path fill="none" stroke="#c0c0c0" stroke-width="2" d="M325.7398,-791.7064C325.5913,-750.9422 321.403,-650.383 286.5,-576 281.7426,-565.8614 274.5606,-556.1118 267.2769,-547.7541"/>
<polygon fill="#c0c0c0" stroke="#c0c0c0" stroke-width="2" points="269.6807,-545.1972 260.3382,-540.2004 264.5255,-549.9327 269.6807,-545.1972"/>
</g>
<!-- 16&#45;&gt;15 -->
<g id="edge23" class="edge">
<title>16&#45;&gt;15</title>
<path fill="none" stroke="#c0c0c0" stroke-width="2" d="M319.9847,-791.703C310.6325,-761.3528 290.5208,-698.8967 268.5,-648 264.6611,-639.1272 259.9872,-629.6947 255.5663,-621.2375"/>
<polygon fill="#c0c0c0" stroke="#c0c0c0" stroke-width="2" points="258.5334,-619.3632 250.7406,-612.1853 252.3564,-622.6562 258.5334,-619.3632"/>
</g>
<!-- 16&#45;&gt;19 -->
<g id="edge28" class="edge">
<title>16&#45;&gt;19</title>
<path fill="none" stroke="#c0c0c0" stroke-width="2" d="M296.4806,-791.8314C281.7714,-782.6221 263.7356,-771.3301 247.9878,-761.4706"/>
<polygon fill="#c0c0c0" stroke="#c0c0c0" stroke-width="2" points="249.8433,-758.5029 239.5101,-756.1628 246.1286,-764.436 249.8433,-758.5029"/>
</g>
<!-- 17 -->
<g id="node18" class="node">
<title>17</title>
<path fill="none" stroke="#d88d56" stroke-width="2" d="M141,-900C141,-900 12,-900 12,-900 6,-900 0,-894 0,-888 0,-888 0,-876 0,-876 0,-870 6,-864 12,-864 12,-864 141,-864 141,-864 147,-864 153,-870 153,-876 153,-876 153,-888 153,-888 153,-894 147,-900 141,-900"/>
<text text-anchor="middle" x="76.5" y="-879.5" font-family="sans" font-size="10.00" fill="#000000">download_100g_sampleInfo</text>
</g>
<!-- 17&#45;&gt;13 -->
<g id="edge21" class="edge">
<title>17&#45;&gt;13</title>
<path fill="none" stroke="#c0c0c0" stroke-width="2" d="M76.5,-863.8314C76.5,-856.131 76.5,-846.9743 76.5,-838.4166"/>
<polygon fill="#c0c0c0" stroke="#c0c0c0" stroke-width="2" points="80.0001,-838.4132 76.5,-828.4133 73.0001,-838.4133 80.0001,-838.4132"/>
</g>
<!-- 18 -->
<g id="node19" class="node">
<title>18</title>
<path fill="none" stroke="#d8c356" stroke-width="2" d="M247.5,-684C247.5,-684 183.5,-684 183.5,-684 177.5,-684 171.5,-678 171.5,-672 171.5,-672 171.5,-660 171.5,-660 171.5,-654 177.5,-648 183.5,-648 183.5,-648 247.5,-648 247.5,-648 253.5,-648 259.5,-654 259.5,-660 259.5,-660 259.5,-672 259.5,-672 259.5,-678 253.5,-684 247.5,-684"/>
<text text-anchor="middle" x="215.5" y="-663.5" font-family="sans" font-size="10.00" fill="#000000">get_plink_files</text>
</g>
<!-- 18&#45;&gt;15 -->
<g id="edge22" class="edge">
<title>18&#45;&gt;15</title>
<path fill="none" stroke="#c0c0c0" stroke-width="2" d="M221.8086,-647.8314C224.5117,-640.0463 227.7316,-630.7729 230.731,-622.1347"/>
<polygon fill="#c0c0c0" stroke="#c0c0c0" stroke-width="2" points="234.1327,-623.0081 234.1065,-612.4133 227.52,-620.7119 234.1327,-623.0081"/>
</g>
<!-- 19&#45;&gt;18 -->
<g id="edge25" class="edge">
<title>19&#45;&gt;18</title>
<path fill="none" stroke="#c0c0c0" stroke-width="2" d="M211.7617,-719.8314C212.2965,-712.131 212.9323,-702.9743 213.5266,-694.4166"/>
<polygon fill="#c0c0c0" stroke="#c0c0c0" stroke-width="2" points="217.02,-694.6317 214.2213,-684.4133 210.0368,-694.1467 217.02,-694.6317"/>
</g>
</g>
</svg>
