<?xml version="1.0" encoding="UTF-8" standalone="no"?>
<!DOCTYPE svg PUBLIC "-//W3C//DTD SVG 1.1//EN"
 "http://www.w3.org/Graphics/SVG/1.1/DTD/svg11.dtd">
<!-- Generated by graphviz version 2.40.1 (20161225.0304)
 -->
<!-- Title: snakemake_dag Pages: 1 -->
<svg width="562pt" height="1124pt"
 viewBox="0.00 0.00 561.50 1124.00" xmlns="http://www.w3.org/2000/svg" xmlns:xlink="http://www.w3.org/1999/xlink">
<g id="graph0" class="graph" transform="scale(1 1) rotate(0) translate(4 1120)">
<title>snakemake_dag</title>
<polygon fill="#ffffff" stroke="transparent" points="-4,4 -4,-1120 557.5,-1120 557.5,4 -4,4"/>
<!-- 0 -->
<g id="node1" class="node">
<title>0</title>
<path fill="none" stroke="#56b1d8" stroke-width="2" d="M123,-36C123,-36 93,-36 93,-36 87,-36 81,-30 81,-24 81,-24 81,-12 81,-12 81,-6 87,0 93,0 93,0 123,0 123,0 129,0 135,-6 135,-12 135,-12 135,-24 135,-24 135,-30 129,-36 123,-36"/>
<text text-anchor="middle" x="108" y="-15.5" font-family="sans" font-size="10.00" fill="#000000">final</text>
</g>
<!-- 1 -->
<g id="node2" class="node">
<title>1</title>
<path fill="none" stroke="#d87d56" stroke-width="2" d="M42,-108C42,-108 12,-108 12,-108 6,-108 0,-102 0,-96 0,-96 0,-84 0,-84 0,-78 6,-72 12,-72 12,-72 42,-72 42,-72 48,-72 54,-78 54,-84 54,-84 54,-96 54,-96 54,-102 48,-108 42,-108"/>
<text text-anchor="middle" x="27" y="-87.5" font-family="sans" font-size="10.00" fill="#000000">plot</text>
</g>
<!-- 1&#45;&gt;0 -->
<g id="edge2" class="edge">
<title>1&#45;&gt;0</title>
<path fill="none" stroke="#c0c0c0" stroke-width="2" d="M47.4397,-71.8314C57.3205,-63.0485 69.3324,-52.3712 80.045,-42.8489"/>
<polygon fill="#c0c0c0" stroke="#c0c0c0" stroke-width="2" points="82.418,-45.4224 87.5668,-36.1628 77.7674,-40.1906 82.418,-45.4224"/>
</g>
<!-- 2 -->
<g id="node3" class="node">
<title>2</title>
<path fill="none" stroke="#d8d356" stroke-width="2" d="M131.5,-108C131.5,-108 84.5,-108 84.5,-108 78.5,-108 72.5,-102 72.5,-96 72.5,-96 72.5,-84 72.5,-84 72.5,-78 78.5,-72 84.5,-72 84.5,-72 131.5,-72 131.5,-72 137.5,-72 143.5,-78 143.5,-84 143.5,-84 143.5,-96 143.5,-96 143.5,-102 137.5,-108 131.5,-108"/>
<text text-anchor="middle" x="108" y="-87.5" font-family="sans" font-size="10.00" fill="#000000">plot_power</text>
</g>
<!-- 2&#45;&gt;0 -->
<g id="edge1" class="edge">
<title>2&#45;&gt;0</title>
<path fill="none" stroke="#c0c0c0" stroke-width="2" d="M108,-71.8314C108,-64.131 108,-54.9743 108,-46.4166"/>
<polygon fill="#c0c0c0" stroke="#c0c0c0" stroke-width="2" points="111.5001,-46.4132 108,-36.4133 104.5001,-46.4133 111.5001,-46.4132"/>
</g>
<!-- 3 -->
<g id="node4" class="node">
<title>3</title>
<path fill="none" stroke="#5663d8" stroke-width="2" d="M215,-180C215,-180 185,-180 185,-180 179,-180 173,-174 173,-168 173,-168 173,-156 173,-156 173,-150 179,-144 185,-144 185,-144 215,-144 215,-144 221,-144 227,-150 227,-156 227,-156 227,-168 227,-168 227,-174 221,-180 215,-180"/>
<text text-anchor="middle" x="200" y="-159.5" font-family="sans" font-size="10.00" fill="#000000">regress</text>
</g>
<!-- 3&#45;&gt;0 -->
<g id="edge3" class="edge">
<title>3&#45;&gt;0</title>
<path fill="none" stroke="#c0c0c0" stroke-width="2" d="M191.5977,-143.8248C182.702,-125.217 167.787,-95.7406 152,-72 145.7076,-62.5374 138.1062,-52.7458 131.0046,-44.1417"/>
<polygon fill="#c0c0c0" stroke="#c0c0c0" stroke-width="2" points="133.5258,-41.7019 124.4081,-36.3057 128.1707,-46.21 133.5258,-41.7019"/>
</g>
<!-- 4 -->
<g id="node5" class="node">
<title>4</title>
<path fill="none" stroke="#5692d8" stroke-width="2" d="M152,-252C152,-252 58,-252 58,-252 52,-252 46,-246 46,-240 46,-240 46,-228 46,-228 46,-222 52,-216 58,-216 58,-216 152,-216 152,-216 158,-216 164,-222 164,-228 164,-228 164,-240 164,-240 164,-246 158,-252 152,-252"/>
<text text-anchor="middle" x="105" y="-231.5" font-family="sans" font-size="10.00" fill="#000000">intersectAnnotations</text>
</g>
<!-- 4&#45;&gt;1 -->
<g id="edge4" class="edge">
<title>4&#45;&gt;1</title>
<path fill="none" stroke="#c0c0c0" stroke-width="2" d="M78.5299,-215.7641C66.85,-206.3863 53.9871,-193.9876 46,-180 35.2101,-161.1041 30.5235,-136.8264 28.5,-118.249"/>
<polygon fill="#c0c0c0" stroke="#c0c0c0" stroke-width="2" points="31.9652,-117.7028 27.5903,-108.0534 24.9929,-118.3249 31.9652,-117.7028"/>
</g>
<!-- 4&#45;&gt;3 -->
<g id="edge6" class="edge">
<title>4&#45;&gt;3</title>
<path fill="none" stroke="#c0c0c0" stroke-width="2" d="M128.9725,-215.8314C140.7861,-206.8779 155.1972,-195.9558 167.9435,-186.2955"/>
<polygon fill="#c0c0c0" stroke="#c0c0c0" stroke-width="2" points="170.1795,-188.9925 176.0352,-180.1628 165.9514,-183.4137 170.1795,-188.9925"/>
</g>
<!-- 5 -->
<g id="node6" class="node">
<title>5</title>
<path fill="none" stroke="#568ad8" stroke-width="2" d="M143,-180C143,-180 67,-180 67,-180 61,-180 55,-174 55,-168 55,-168 55,-156 55,-156 55,-150 61,-144 67,-144 67,-144 143,-144 143,-144 149,-144 155,-150 155,-156 155,-156 155,-168 155,-168 155,-174 149,-180 143,-180"/>
<text text-anchor="middle" x="105" y="-159.5" font-family="sans" font-size="10.00" fill="#000000">setup_powerCalc</text>
</g>
<!-- 4&#45;&gt;5 -->
<g id="edge9" class="edge">
<title>4&#45;&gt;5</title>
<path fill="none" stroke="#c0c0c0" stroke-width="2" d="M105,-215.8314C105,-208.131 105,-198.9743 105,-190.4166"/>
<polygon fill="#c0c0c0" stroke="#c0c0c0" stroke-width="2" points="108.5001,-190.4132 105,-180.4133 101.5001,-190.4133 108.5001,-190.4132"/>
</g>
<!-- 5&#45;&gt;2 -->
<g id="edge5" class="edge">
<title>5&#45;&gt;2</title>
<path fill="none" stroke="#c0c0c0" stroke-width="2" d="M105.757,-143.8314C106.0779,-136.131 106.4594,-126.9743 106.816,-118.4166"/>
<polygon fill="#c0c0c0" stroke="#c0c0c0" stroke-width="2" points="110.3133,-118.5503 107.2328,-108.4133 103.3194,-118.2589 110.3133,-118.5503"/>
</g>
<!-- 6 -->
<g id="node7" class="node">
<title>6</title>
<path fill="none" stroke="#d89556" stroke-width="2" d="M155.5,-396C155.5,-396 54.5,-396 54.5,-396 48.5,-396 42.5,-390 42.5,-384 42.5,-384 42.5,-372 42.5,-372 42.5,-366 48.5,-360 54.5,-360 54.5,-360 155.5,-360 155.5,-360 161.5,-360 167.5,-366 167.5,-372 167.5,-372 167.5,-384 167.5,-384 167.5,-390 161.5,-396 155.5,-396"/>
<text text-anchor="middle" x="105" y="-375.5" font-family="sans" font-size="10.00" fill="#000000">mergeProxiesWithQTL</text>
</g>
<!-- 6&#45;&gt;4 -->
<g id="edge8" class="edge">
<title>6&#45;&gt;4</title>
<path fill="none" stroke="#c0c0c0" stroke-width="2" d="M96.9083,-359.9165C92.7439,-349.6179 88.1082,-336.3436 86,-324 83.3063,-308.2284 83.3063,-303.7716 86,-288 87.4988,-279.2245 90.2751,-269.9785 93.2513,-261.6659"/>
<polygon fill="#c0c0c0" stroke="#c0c0c0" stroke-width="2" points="96.6126,-262.6742 96.9083,-252.0835 90.0727,-260.1782 96.6126,-262.6742"/>
</g>
<!-- 7 -->
<g id="node8" class="node">
<title>7</title>
<path fill="none" stroke="#56d8c1" stroke-width="2" d="M179,-324C179,-324 107,-324 107,-324 101,-324 95,-318 95,-312 95,-312 95,-300 95,-300 95,-294 101,-288 107,-288 107,-288 179,-288 179,-288 185,-288 191,-294 191,-300 191,-300 191,-312 191,-312 191,-318 185,-324 179,-324"/>
<text text-anchor="middle" x="143" y="-303.5" font-family="sans" font-size="10.00" fill="#000000">getHeaderString</text>
</g>
<!-- 6&#45;&gt;7 -->
<g id="edge12" class="edge">
<title>6&#45;&gt;7</title>
<path fill="none" stroke="#c0c0c0" stroke-width="2" d="M114.589,-359.8314C118.8317,-351.7925 123.9121,-342.1666 128.596,-333.2918"/>
<polygon fill="#c0c0c0" stroke="#c0c0c0" stroke-width="2" points="131.7096,-334.8908 133.2819,-324.4133 125.5189,-331.6235 131.7096,-334.8908"/>
</g>
<!-- 7&#45;&gt;4 -->
<g id="edge7" class="edge">
<title>7&#45;&gt;4</title>
<path fill="none" stroke="#c0c0c0" stroke-width="2" d="M133.411,-287.8314C129.1683,-279.7925 124.0879,-270.1666 119.404,-261.2918"/>
<polygon fill="#c0c0c0" stroke="#c0c0c0" stroke-width="2" points="122.4811,-259.6235 114.7181,-252.4133 116.2904,-262.8908 122.4811,-259.6235"/>
</g>
<!-- 8 -->
<g id="node9" class="node">
<title>8</title>
<path fill="none" stroke="#56d8d8" stroke-width="2" d="M195,-1044C195,-1044 133,-1044 133,-1044 127,-1044 121,-1038 121,-1032 121,-1032 121,-1020 121,-1020 121,-1014 127,-1008 133,-1008 133,-1008 195,-1008 195,-1008 201,-1008 207,-1014 207,-1020 207,-1020 207,-1032 207,-1032 207,-1038 201,-1044 195,-1044"/>
<text text-anchor="middle" x="164" y="-1023.5" font-family="sans" font-size="10.00" fill="#000000">formatEqtlFile</text>
</g>
<!-- 8&#45;&gt;6 -->
<g id="edge10" class="edge">
<title>8&#45;&gt;6</title>
<path fill="none" stroke="#c0c0c0" stroke-width="2" d="M143.126,-1007.8028C116.5391,-982.4918 74,-933.8869 74,-882 74,-882 74,-882 74,-522 74,-481.0037 86.1567,-434.8829 95.2446,-406.1326"/>
<polygon fill="#c0c0c0" stroke="#c0c0c0" stroke-width="2" points="98.6559,-406.9603 98.4257,-396.3679 92.0002,-404.7919 98.6559,-406.9603"/>
</g>
<!-- 16 -->
<g id="node17" class="node">
<title>16</title>
<path fill="none" stroke="#56b9d8" stroke-width="2" d="M308,-972C308,-972 204,-972 204,-972 198,-972 192,-966 192,-960 192,-960 192,-948 192,-948 192,-942 198,-936 204,-936 204,-936 308,-936 308,-936 314,-936 320,-942 320,-948 320,-948 320,-960 320,-960 320,-966 314,-972 308,-972"/>
<text text-anchor="middle" x="256" y="-951.5" font-family="sans" font-size="10.00" fill="#000000">setup_eqtl_for_pruning</text>
</g>
<!-- 8&#45;&gt;16 -->
<g id="edge21" class="edge">
<title>8&#45;&gt;16</title>
<path fill="none" stroke="#c0c0c0" stroke-width="2" d="M187.2155,-1007.8314C198.547,-998.9632 212.3464,-988.1637 224.6027,-978.5718"/>
<polygon fill="#c0c0c0" stroke="#c0c0c0" stroke-width="2" points="227.074,-981.0822 232.7919,-972.1628 222.7598,-975.5697 227.074,-981.0822"/>
</g>
<!-- 9 -->
<g id="node10" class="node">
<title>9</title>
<path fill="none" stroke="#b6d856" stroke-width="2" d="M159,-468C159,-468 115,-468 115,-468 109,-468 103,-462 103,-456 103,-456 103,-444 103,-444 103,-438 109,-432 115,-432 115,-432 159,-432 159,-432 165,-432 171,-438 171,-444 171,-444 171,-456 171,-456 171,-462 165,-468 159,-468"/>
<text text-anchor="middle" x="137" y="-447.5" font-family="sans" font-size="10.00" fill="#000000">getProxies</text>
</g>
<!-- 9&#45;&gt;6 -->
<g id="edge11" class="edge">
<title>9&#45;&gt;6</title>
<path fill="none" stroke="#c0c0c0" stroke-width="2" d="M128.925,-431.8314C125.3898,-423.8771 121.164,-414.369 117.2544,-405.5723"/>
<polygon fill="#c0c0c0" stroke="#c0c0c0" stroke-width="2" points="120.4435,-404.1299 113.1837,-396.4133 114.0468,-406.9729 120.4435,-404.1299"/>
</g>
<!-- 10 -->
<g id="node11" class="node">
<title>10</title>
<path fill="none" stroke="#d86656" stroke-width="2" d="M223,-1116C223,-1116 105,-1116 105,-1116 99,-1116 93,-1110 93,-1104 93,-1104 93,-1092 93,-1092 93,-1086 99,-1080 105,-1080 105,-1080 223,-1080 223,-1080 229,-1080 235,-1086 235,-1092 235,-1092 235,-1104 235,-1104 235,-1110 229,-1116 223,-1116"/>
<text text-anchor="middle" x="164" y="-1095.5" font-family="sans" font-size="10.00" fill="#000000">download_gtexEqtl_blood</text>
</g>
<!-- 10&#45;&gt;8 -->
<g id="edge13" class="edge">
<title>10&#45;&gt;8</title>
<path fill="none" stroke="#c0c0c0" stroke-width="2" d="M164,-1079.8314C164,-1072.131 164,-1062.9743 164,-1054.4166"/>
<polygon fill="#c0c0c0" stroke="#c0c0c0" stroke-width="2" points="167.5001,-1054.4132 164,-1044.4133 160.5001,-1054.4133 167.5001,-1054.4132"/>
</g>
<!-- 11 -->
<g id="node12" class="node">
<title>11</title>
<path fill="none" stroke="#8fd856" stroke-width="2" d="M167,-540C167,-540 117,-540 117,-540 111,-540 105,-534 105,-528 105,-528 105,-516 105,-516 105,-510 111,-504 117,-504 117,-504 167,-504 167,-504 173,-504 179,-510 179,-516 179,-516 179,-528 179,-528 179,-534 173,-540 167,-540"/>
<text text-anchor="middle" x="142" y="-519.5" font-family="sans" font-size="10.00" fill="#000000">runGREGOR</text>
</g>
<!-- 11&#45;&gt;9 -->
<g id="edge14" class="edge">
<title>11&#45;&gt;9</title>
<path fill="none" stroke="#c0c0c0" stroke-width="2" d="M140.7383,-503.8314C140.2035,-496.131 139.5677,-486.9743 138.9734,-478.4166"/>
<polygon fill="#c0c0c0" stroke="#c0c0c0" stroke-width="2" points="142.4632,-478.1467 138.2787,-468.4133 135.48,-478.6317 142.4632,-478.1467"/>
</g>
<!-- 12 -->
<g id="node13" class="node">
<title>12</title>
<path fill="none" stroke="#78d856" stroke-width="2" d="M186,-612C186,-612 124,-612 124,-612 118,-612 112,-606 112,-600 112,-600 112,-588 112,-588 112,-582 118,-576 124,-576 124,-576 186,-576 186,-576 192,-576 198,-582 198,-588 198,-588 198,-600 198,-600 198,-606 192,-612 186,-612"/>
<text text-anchor="middle" x="155" y="-591.5" font-family="sans" font-size="10.00" fill="#000000">setupGREGOR</text>
</g>
<!-- 12&#45;&gt;11 -->
<g id="edge15" class="edge">
<title>12&#45;&gt;11</title>
<path fill="none" stroke="#c0c0c0" stroke-width="2" d="M151.7196,-575.8314C150.3292,-568.131 148.6759,-558.9743 147.1308,-550.4166"/>
<polygon fill="#c0c0c0" stroke="#c0c0c0" stroke-width="2" points="150.5458,-549.6322 145.3246,-540.4133 143.6572,-550.8761 150.5458,-549.6322"/>
</g>
<!-- 13 -->
<g id="node14" class="node">
<title>13</title>
<path fill="none" stroke="#d8bc56" stroke-width="2" d="M186,-684C186,-684 124,-684 124,-684 118,-684 112,-678 112,-672 112,-672 112,-660 112,-660 112,-654 118,-648 124,-648 124,-648 186,-648 186,-648 192,-648 198,-654 198,-660 198,-660 198,-672 198,-672 198,-678 192,-684 186,-684"/>
<text text-anchor="middle" x="155" y="-663.5" font-family="sans" font-size="10.00" fill="#000000">makeBedFiles</text>
</g>
<!-- 13&#45;&gt;12 -->
<g id="edge17" class="edge">
<title>13&#45;&gt;12</title>
<path fill="none" stroke="#c0c0c0" stroke-width="2" d="M155,-647.8314C155,-640.131 155,-630.9743 155,-622.4166"/>
<polygon fill="#c0c0c0" stroke="#c0c0c0" stroke-width="2" points="158.5001,-622.4132 155,-612.4133 151.5001,-622.4133 158.5001,-622.4132"/>
</g>
<!-- 14 -->
<g id="node15" class="node">
<title>14</title>
<path fill="none" stroke="#567bd8" stroke-width="2" d="M340,-684C340,-684 228,-684 228,-684 222,-684 216,-678 216,-672 216,-672 216,-660 216,-660 216,-654 222,-648 228,-648 228,-648 340,-648 340,-648 346,-648 352,-654 352,-660 352,-660 352,-672 352,-672 352,-678 346,-684 340,-684"/>
<text text-anchor="middle" x="284" y="-663.5" font-family="sans" font-size="10.00" fill="#000000">organize_pruned_results</text>
</g>
<!-- 14&#45;&gt;12 -->
<g id="edge16" class="edge">
<title>14&#45;&gt;12</title>
<path fill="none" stroke="#c0c0c0" stroke-width="2" d="M251.4479,-647.8314C234.7952,-638.5368 214.3415,-627.1208 196.5615,-617.1971"/>
<polygon fill="#c0c0c0" stroke="#c0c0c0" stroke-width="2" points="197.9795,-613.9803 187.5417,-612.1628 194.5679,-620.0927 197.9795,-613.9803"/>
</g>
<!-- 15 -->
<g id="node16" class="node">
<title>15</title>
<path fill="none" stroke="#56c9d8" stroke-width="2" d="M217.5,-756C217.5,-756 114.5,-756 114.5,-756 108.5,-756 102.5,-750 102.5,-744 102.5,-744 102.5,-732 102.5,-732 102.5,-726 108.5,-720 114.5,-720 114.5,-720 217.5,-720 217.5,-720 223.5,-720 229.5,-726 229.5,-732 229.5,-732 229.5,-744 229.5,-744 229.5,-750 223.5,-756 217.5,-756"/>
<text text-anchor="middle" x="166" y="-735.5" font-family="sans" font-size="10.00" fill="#000000">download_annotations</text>
</g>
<!-- 15&#45;&gt;13 -->
<g id="edge18" class="edge">
<title>15&#45;&gt;13</title>
<path fill="none" stroke="#c0c0c0" stroke-width="2" d="M163.2242,-719.8314C162.0478,-712.131 160.6489,-702.9743 159.3414,-694.4166"/>
<polygon fill="#c0c0c0" stroke="#c0c0c0" stroke-width="2" points="162.7833,-693.7699 157.8131,-684.4133 155.8636,-694.8272 162.7833,-693.7699"/>
</g>
<!-- 16&#45;&gt;14 -->
<g id="edge19" class="edge">
<title>16&#45;&gt;14</title>
<path fill="none" stroke="#c0c0c0" stroke-width="2" d="M257.3899,-935.771C260.4492,-896.3568 268.1979,-800.2797 277,-720 277.9128,-711.6747 279.0322,-702.6445 280.1058,-694.3942"/>
<polygon fill="#c0c0c0" stroke="#c0c0c0" stroke-width="2" points="283.5764,-694.8463 281.4223,-684.4728 276.6372,-693.9255 283.5764,-694.8463"/>
</g>
<!-- 17 -->
<g id="node18" class="node">
<title>17</title>
<path fill="none" stroke="#d85656" stroke-width="2" d="M348,-756C348,-756 298,-756 298,-756 292,-756 286,-750 286,-744 286,-744 286,-732 286,-732 286,-726 292,-720 298,-720 298,-720 348,-720 348,-720 354,-720 360,-726 360,-732 360,-732 360,-744 360,-744 360,-750 354,-756 348,-756"/>
<text text-anchor="middle" x="323" y="-735.5" font-family="sans" font-size="10.00" fill="#000000">prune_plink</text>
</g>
<!-- 16&#45;&gt;17 -->
<g id="edge22" class="edge">
<title>16&#45;&gt;17</title>
<path fill="none" stroke="#c0c0c0" stroke-width="2" d="M261.5971,-935.9555C273.2975,-898.235 300.4127,-810.8188 314.3645,-765.8399"/>
<polygon fill="#c0c0c0" stroke="#c0c0c0" stroke-width="2" points="317.7519,-766.7331 317.3717,-756.1451 311.0661,-764.6592 317.7519,-766.7331"/>
</g>
<!-- 19 -->
<g id="node20" class="node">
<title>19</title>
<path fill="none" stroke="#56a2d8" stroke-width="2" d="M406,-900C406,-900 362,-900 362,-900 356,-900 350,-894 350,-888 350,-888 350,-876 350,-876 350,-870 356,-864 362,-864 362,-864 406,-864 406,-864 412,-864 418,-870 418,-876 418,-876 418,-888 418,-888 418,-894 412,-900 406,-900"/>
<text text-anchor="middle" x="384" y="-879.5" font-family="sans" font-size="10.00" fill="#000000">subsetVCF</text>
</g>
<!-- 16&#45;&gt;19 -->
<g id="edge25" class="edge">
<title>16&#45;&gt;19</title>
<path fill="none" stroke="#c0c0c0" stroke-width="2" d="M288.2998,-935.8314C304.8234,-926.5368 325.1186,-915.1208 342.7607,-905.1971"/>
<polygon fill="#c0c0c0" stroke="#c0c0c0" stroke-width="2" points="344.7107,-908.116 351.7105,-900.1628 341.2788,-902.015 344.7107,-908.116"/>
</g>
<!-- 17&#45;&gt;14 -->
<g id="edge20" class="edge">
<title>17&#45;&gt;14</title>
<path fill="none" stroke="#c0c0c0" stroke-width="2" d="M313.1587,-719.8314C308.8043,-711.7925 303.5902,-702.1666 298.7831,-693.2918"/>
<polygon fill="#c0c0c0" stroke="#c0c0c0" stroke-width="2" points="301.8143,-691.5392 293.9739,-684.4133 295.6592,-694.8732 301.8143,-691.5392"/>
</g>
<!-- 18 -->
<g id="node19" class="node">
<title>18</title>
<path fill="none" stroke="#bed856" stroke-width="2" d="M415,-828C415,-828 351,-828 351,-828 345,-828 339,-822 339,-816 339,-816 339,-804 339,-804 339,-798 345,-792 351,-792 351,-792 415,-792 415,-792 421,-792 427,-798 427,-804 427,-804 427,-816 427,-816 427,-822 421,-828 415,-828"/>
<text text-anchor="middle" x="383" y="-807.5" font-family="sans" font-size="10.00" fill="#000000">get_plink_files</text>
</g>
<!-- 18&#45;&gt;17 -->
<g id="edge23" class="edge">
<title>18&#45;&gt;17</title>
<path fill="none" stroke="#c0c0c0" stroke-width="2" d="M367.8595,-791.8314C360.8783,-783.454 352.4609,-773.3531 344.8124,-764.1749"/>
<polygon fill="#c0c0c0" stroke="#c0c0c0" stroke-width="2" points="347.4351,-761.8548 338.3444,-756.4133 342.0575,-766.3362 347.4351,-761.8548"/>
</g>
<!-- 19&#45;&gt;18 -->
<g id="edge24" class="edge">
<title>19&#45;&gt;18</title>
<path fill="none" stroke="#c0c0c0" stroke-width="2" d="M383.7477,-863.8314C383.6407,-856.131 383.5135,-846.9743 383.3947,-838.4166"/>
<polygon fill="#c0c0c0" stroke="#c0c0c0" stroke-width="2" points="386.8944,-838.3637 383.2557,-828.4133 379.8951,-838.4609 386.8944,-838.3637"/>
</g>
<!-- 20 -->
<g id="node21" class="node">
<title>20</title>
<path fill="none" stroke="#59d856" stroke-width="2" d="M424,-972C424,-972 350,-972 350,-972 344,-972 338,-966 338,-960 338,-960 338,-948 338,-948 338,-942 344,-936 350,-936 350,-936 424,-936 424,-936 430,-936 436,-942 436,-948 436,-948 436,-960 436,-960 436,-966 430,-972 424,-972"/>
<text text-anchor="middle" x="387" y="-951.5" font-family="sans" font-size="10.00" fill="#000000">makeSampleFile</text>
</g>
<!-- 20&#45;&gt;19 -->
<g id="edge26" class="edge">
<title>20&#45;&gt;19</title>
<path fill="none" stroke="#c0c0c0" stroke-width="2" d="M386.243,-935.8314C385.9221,-928.131 385.5406,-918.9743 385.184,-910.4166"/>
<polygon fill="#c0c0c0" stroke="#c0c0c0" stroke-width="2" points="388.6806,-910.2589 384.7672,-900.4133 381.6867,-910.5503 388.6806,-910.2589"/>
</g>
<!-- 21 -->
<g id="node22" class="node">
<title>21</title>
<path fill="none" stroke="#56d882" stroke-width="2" d="M541.5,-972C541.5,-972 466.5,-972 466.5,-972 460.5,-972 454.5,-966 454.5,-960 454.5,-960 454.5,-948 454.5,-948 454.5,-942 460.5,-936 466.5,-936 466.5,-936 541.5,-936 541.5,-936 547.5,-936 553.5,-942 553.5,-948 553.5,-948 553.5,-960 553.5,-960 553.5,-966 547.5,-972 541.5,-972"/>
<text text-anchor="middle" x="504" y="-951.5" font-family="sans" font-size="10.00" fill="#000000">download_1000g</text>
</g>
<!-- 21&#45;&gt;19 -->
<g id="edge27" class="edge">
<title>21&#45;&gt;19</title>
<path fill="none" stroke="#c0c0c0" stroke-width="2" d="M473.7189,-935.8314C458.3702,-926.6221 439.5502,-915.3301 423.1177,-905.4706"/>
<polygon fill="#c0c0c0" stroke="#c0c0c0" stroke-width="2" points="424.6471,-902.3066 414.2714,-900.1628 421.0456,-908.3091 424.6471,-902.3066"/>
</g>
<!-- 22 -->
<g id="node23" class="node">
<title>22</title>
<path fill="none" stroke="#56d8b9" stroke-width="2" d="M451.5,-1044C451.5,-1044 322.5,-1044 322.5,-1044 316.5,-1044 310.5,-1038 310.5,-1032 310.5,-1032 310.5,-1020 310.5,-1020 310.5,-1014 316.5,-1008 322.5,-1008 322.5,-1008 451.5,-1008 451.5,-1008 457.5,-1008 463.5,-1014 463.5,-1020 463.5,-1020 463.5,-1032 463.5,-1032 463.5,-1038 457.5,-1044 451.5,-1044"/>
<text text-anchor="middle" x="387" y="-1023.5" font-family="sans" font-size="10.00" fill="#000000">download_100g_sampleInfo</text>
</g>
<!-- 22&#45;&gt;20 -->
<g id="edge28" class="edge">
<title>22&#45;&gt;20</title>
<path fill="none" stroke="#c0c0c0" stroke-width="2" d="M387,-1007.8314C387,-1000.131 387,-990.9743 387,-982.4166"/>
<polygon fill="#c0c0c0" stroke="#c0c0c0" stroke-width="2" points="390.5001,-982.4132 387,-972.4133 383.5001,-982.4133 390.5001,-982.4132"/>
</g>
</g>
</svg>
